<?xml version="1.0" standalone="no"?>
<!DOCTYPE svg PUBLIC "-//W3C//DTD SVG 20010904//EN"
 "http://www.w3.org/TR/2001/REC-SVG-20010904/DTD/svg10.dtd">
<svg version="1.0" xmlns="http://www.w3.org/2000/svg"
 width="700.000000pt" height="700.000000pt" viewBox="0 0 700.000000 700.000000"
 preserveAspectRatio="xMidYMid meet">
<metadata>
Created by potrace 1.11, written by Peter Selinger 2001-2013
</metadata>
<g transform="translate(0.000000,700.000000) scale(0.100000,-0.100000)"
fill="#000000" stroke="none">
<path d="M850 5780 c-13 -9 -5 -3196 9 -3265 52 -262 119 -431 247 -621 198
-297 511 -522 854 -615 41 -11 84 -22 95 -24 508 -94 990 45 1353 390 l97 93
55 -57 c175 -180 452 -345 665 -397 17 -4 35 -8 40 -10 44 -13 107 -26 205
-40 53 -8 277 -8 345 0 349 41 697 215 924 460 20 21 45 49 56 60 32 34 100
128 143 198 126 206 197 426 219 678 8 94 10 3122 2 3140 -6 13 -57 15 -376
13 -202 0 -371 -2 -374 -2 -3 -1 -6 -691 -6 -1533 0 -843 -3 -1559 -7 -1590
-35 -295 -231 -537 -511 -633 -27 -9 -59 -19 -70 -21 -46 -10 -179 -22 -203
-19 -15 2 -51 6 -81 10 -66 7 -182 45 -247 81 -192 106 -320 272 -377 488 -21
81 -21 87 -22 1648 0 1387 -2 1568 -15 1569 -46 3 -718 4 -731 1 -15 -3 -17
-127 -17 -1545 0 -848 -3 -1560 -6 -1582 -10 -69 -17 -98 -38 -160 -74 -209
-227 -369 -432 -454 -75 -31 -102 -37 -205 -50 -359 -42 -699 187 -807 544
l-27 90 -2 1572 c-1 865 -5 1576 -9 1580 -7 8 -733 11 -746 3z"/>
</g>
</svg>
