<svg id="Capa_1" xmlns="http://www.w3.org/2000/svg" viewBox="0 0 186 49"><style>.st0{fill:#00B5AC;}</style><g id="XMLID_1045_"><path id="XMLID_1063_" class="st0" d="M45.4 24.6c0 8.5-6.9 15.3-15.3 15.3-8.5 0-15.3-6.9-15.3-15.3 0-8.5 6.9-15.3 15.3-15.3 8.4-.1 15.3 6.8 15.3 15.3zM33 33.8c3 0 5.4-2.4 5.4-5.4v-.2h-3.3v.2c0 1.2-1 2.1-2.1 2.1h-4.9l9.6-15.1H24.1l-1.9 3.3h9.4L22 33.8h11z"/><g id="XMLID_1046_"><path id="XMLID_1062_" d="M72 15.3h5.9v18.5H72z"/><path id="XMLID_1060_" d="M95.1 27.8l1.6 4.8c-1.2.8-3.1 1.7-5.4 1.7-5.9 0-10-4-10-9.7s4.3-9.7 10-9.7c2.4 0 4.2.8 5.5 1.7l-1.6 5c-1-.8-2.3-1.4-3.7-1.4-2.8 0-4.3 1.9-4.3 4.4 0 2.7 1.8 4.5 4.5 4.5 1.3 0 2.6-.6 3.4-1.3z"/><path id="XMLID_1059_" d="M117.6 15.3h5.9v18.5h-5.9z"/><path id="XMLID_1057_" d="M134.4 28.9h7.3v4.9H127v-3.5l7.2-10.1h-7v-4.9h14.4v3.6l-7.2 10z"/><path id="XMLID_1056_" d="M145.2 15.3h5.9v18.5h-5.9z"/><path id="XMLID_1053_" d="M161.6 21.9c1.6 0 2.9.4 3.6.7v-.7c0-1.1-.9-2-2.8-2-1.6 0-3.2.5-4.7 1.2l-2.2-3.9c2-1.3 4.5-2.3 7.5-2.3 6.4 0 8 3.3 8 7.5v11.5h-5.2l-.3-1c-1 1-2.3 1.5-4.2 1.5-3.6 0-6.9-2.2-6.9-6.2 0-3.8 2.8-6.3 7.2-6.3zm1.2 7.9c1.4 0 2.5-.7 2.5-1.9 0-1.3-1.1-2-2.5-2s-2.5.8-2.5 2 1.1 1.9 2.5 1.9z"/><g id="XMLID_1050_"><path id="XMLID_1051_" d="M109.6 20.2v13.6h-6V20.2h-4.3v-4.9H114v4.9h-4.4z"/></g><g id="XMLID_1047_"><path id="XMLID_1048_" d="M60 28.3v5.5h-5.9V15.3h14.3v4.9H60v3.3h7.7v4.8H60z"/></g></g></g></svg>