<svg xmlns="http://www.w3.org/2000/svg" width="595.28" height="301.492" viewBox="0 0 595.28 301.492"><path d="M281.87 10.29v184.99c0 13.097-6.675 25.594-17.48 33.012-10.848-7.418-17.483-19.915-17.483-33.013V10.29H146.86v184.99c0 13.097-6.638 25.594-17.486 33.012-10.8-7.418-17.485-19.915-17.485-33.013V10.29H11.876v184.99c0 52.398 42.62 95.01 95.028 95.01h44.972c15.605 0 31.11-3.942 44.985-11.338 13.78 7.396 29.316 11.338 45.02 11.338h44.977c52.413 0 95.022-42.61 95.022-95.01V10.29H281.87zM159.675 274.275l10.742 3.894c-2.156.49-4.35.926-6.566 1.246l-7.784-2.863c1.196-.73 2.413-1.49 3.61-2.28zm2.986-2.13c1.095-.795 2.205-1.577 3.257-2.422l14.89 5.424c-1.714.634-3.456 1.208-5.25 1.712l-12.896-4.717zm5.87-4.665c.99-.843 1.98-1.653 2.906-2.52l18.028 6.538c-1.454.707-2.918 1.41-4.368 2.002l-16.566-6.02zm5.3-4.873c.888-.882 1.727-1.722 2.574-2.65l20.423 7.428c-1.273.774-2.525 1.5-3.793 2.233l-19.203-7.01zm4.716-5.058c.82-.926 1.592-1.857 2.336-2.77l22.4 8.146c-1.077.82-2.17 1.642-3.295 2.402l-21.44-7.78zm27.49 3.185l-23.23-8.46c.69-.96 1.408-1.888 2.047-2.855l24.15 8.768c-.946.893-1.98 1.716-2.968 2.548zm5.38-4.835l-24.827-9.042c.64-.992 1.253-1.954 1.815-2.934l25.623 9.313c-.854.887-1.722 1.788-2.612 2.664zm4.81-5.085l-26.287-9.56c.562-.982 1.095-1.972 1.606-3.033l26.922 9.813c-.748.944-1.472 1.913-2.243 2.78zm4.16-5.242l-27.52-10.058c.464-1.012.967-2.028 1.39-3.067l28.153 10.218c-.66.993-1.31 1.942-2.024 2.907zm3.696-5.467l-28.688-10.447c.387-1.05.808-2.115 1.195-3.21l29.26 10.655c-.546 1.033-1.15 1.997-1.77 3zm7.803-6.08l-.413-.1h-.152c-.2-.03-.386-.038-.66-.038h-.108c-.266 0-.606.01-1.016.118-.234.074-.445.114-.676.233-.273.11-.583.262-.896.45L197.5 223.62c.353-1.07.687-2.16.997-3.256l40.434 14.71c-2.413-.163-4.765-.46-7.043-1.048zm15.247.848l-47.914-17.462c.264-1.094.527-2.188.75-3.307l53.4 19.438c-2.053.573-4.13 1.053-6.237 1.33zM201.887 194.4l36.614 13.31c.368 1.364.75 2.718 1.207 4.04l-37.917-13.78c.018-.9.097-1.79.097-2.692v-.88zm7.707-174.097l27.26 9.938v3.62l-34.967-12.75v-.807h7.707zm27.26 3.144v3.614l-18.49-6.757h9.938l8.552 3.145zm0 13.603v3.614l-34.968-12.73v-3.607l34.968 12.723zm0 6.786v3.624l-34.968-12.707v-3.617l34.968 12.7zm0 6.796v3.627l-34.968-12.71v-3.623l34.968 12.704zm0 6.836v3.59l-34.968-12.71v-3.622l34.968 12.742zm0 6.816v3.573L201.886 55.15v-3.63l34.968 12.764zm0 6.79v3.604l-34.968-12.735v-3.62l34.968 12.752zm0 6.8v3.624L201.887 68.74v-3.617l34.967 12.75zm0 6.8v3.618L201.887 75.55v-3.606l34.967 12.73zm0 6.795v3.62l-34.968-12.75V78.76l34.968 12.71zm0 6.794v3.632l-34.968-12.72V85.56l34.968 12.705zm0 6.803v3.622l-34.968-12.716v-3.618l34.968 12.71zm0 6.797v3.62l-34.968-12.7v-3.63l34.968 12.71zm0 6.842v3.572l-34.968-12.7v-3.624l34.968 12.75zm0 6.8v3.602l-34.968-12.735v-3.622l34.968 12.755zm0 6.8l.005 3.618-34.975-12.75v-3.63l34.968 12.763zm.005 6.793v3.62l-34.975-12.755v-3.592L236.86 139.1zm0 6.795v3.61l-34.975-12.742v-3.574l34.973 12.705zm0 6.783v3.616l-34.975-12.712v-3.607l34.973 12.702zm0 6.798v3.627l-34.975-12.71v-3.622l34.973 12.706zm0 6.818v3.604l-34.975-12.7v-3.623l34.973 12.72zm0 6.82v3.57l-34.975-12.698v-3.618l34.973 12.745zm0 6.797v3.593l-34.975-12.726v-3.61l34.973 12.743zm0 6.804v3.622l-34.975-12.764v-3.614l34.973 12.756zm0 6.795v2.46c0 .403.076.78.092 1.196l-35.066-12.79v-3.606l34.972 12.74zm.307 6.923c.156 1.28.363 2.538.59 3.823l-35.87-13.08v-3.573l35.28 12.83zm4.05 15.08c.693 1.513 1.44 2.99 2.26 4.414l-42.107-15.33c.143-1.132.237-2.305.32-3.485l39.53 14.402zm4.886 8.572c1.29 1.8 2.62 3.473 4.084 5.1l-49.693-18.065c.2-1.147.416-2.286.548-3.444l45.06 16.41zm-144.22-201.07v3.57l-17.273-6.28h9.94l7.333 2.71zm0 6.793v3.595l-34.97-12.73V20.3h8.92l26.05 9.507zm0 6.802v3.612L66.913 27.48v-3.63l34.97 12.76zm0 6.796v3.613l-34.97-12.75v-3.6l34.97 12.737zm0 6.794v3.624L66.913 41.07v-3.58l34.97 12.712zm0 6.81v3.608l-34.97-12.74v-3.593l34.97 12.725zm0 6.785v3.624l-34.97-12.707V51.09l34.97 12.706zm0 6.804v3.62l-34.97-12.706v-3.627l34.97 12.713zm0 6.81v3.607l-34.97-12.714v-3.617l34.97 12.725zm0 6.834v3.574L66.913 75.11v-3.628l34.97 12.76zm0 6.79v3.62L66.913 81.9v-3.617l34.97 12.752zm0 6.8v3.624L66.913 88.7v-3.617l34.97 12.75zm0 6.8v3.62l-34.97-12.757V91.92l34.97 12.715zm0 6.795v3.623l-34.97-12.743v-3.59l34.97 12.71zm0 6.795v3.622l-34.97-12.717v-3.61l34.97 12.706zm0 6.797v3.62l-34.97-12.707v-3.617l34.97 12.703zm0 6.82v3.6l-34.97-12.705v-3.63l34.97 12.735zm0 6.818v3.58l-34.97-12.71v-3.613l34.97 12.744zm0 6.8v3.593l-34.97-12.727v-3.613l34.97 12.747zm0 6.804v3.623l-34.97-12.756v-3.622l34.97 12.757zm0 6.794v3.614l-34.97-12.747v-3.606l34.97 12.737zm0 6.796v3.608l-34.97-12.753v-3.56l34.97 12.703zm0 6.786v3.622l-34.97-12.71v-3.62l34.97 12.708zm0 6.803v3.622l-34.97-12.715v-3.617l34.97 12.71zm0 6.796v3.62l-34.97-12.71v-3.624l34.97 12.712zm0 6.834v2.896c.007.24.05.47.058.712l-35.026-12.737v-3.614l34.968 12.746zm.27 6.876c.104 1.31.322 2.557.532 3.806l-35.77-13.016v-3.618l35.24 12.83zm1.2 7.27c.344 1.357.753 2.707 1.185 4.03L67 197.594c-.02-.755-.09-1.51-.09-2.314v-1.367l36.443 13.306zm2.69 7.747c.623 1.522 1.374 2.99 2.163 4.41l-40.127-14.58c-.28-1.3-.55-2.58-.737-3.885l38.7 14.055zm4.69 8.52c1.207 1.773 2.497 3.474 3.934 5.07l-43.762-15.94c-.64-1.383-1.238-2.808-1.745-4.24l41.574 15.11zm-28.433 3.26l23.203 8.454c-8.712-.29-16.737-3.387-23.202-8.45zm30.798 8.018l-36.27-13.2c-1.363-1.543-2.59-3.206-3.703-4.956l45.953 16.713c-1.966.638-3.97 1.112-5.98 1.44zm-6.192 45.512c-46.87 0-85.02-38.13-85.02-84.998V20.3H56.87V195.28c0 27.6 22.424 50.022 50.035 50.022 8.75 0 17.387-2.334 25.11-6.818l3.937-2.57c12.895-9.233 20.72-24.19 20.955-39.978V20.303h34.97V195.28c0 38.828-26.198 72.68-63.734 82.296-6.913 1.797-14.067 2.7-21.237 2.7zm42.492 0c1.1-.552 2.148-1.18 3.223-1.777l4.36 1.58c-1.675.12-3.37.197-5.102.197h-2.48zm92.485 0c-12.023 0-24.052-2.62-35.012-7.57 10.523-7.47 19.53-17.154 26.25-28.208 2.916.544 5.857.8 8.764.8 8.753 0 17.387-2.333 25.104-6.817l3.98-2.57c12.853-9.233 20.702-24.19 20.91-39.978V20.303h34.973V195.28c0 38.828-26.197 72.68-63.737 82.296-6.905 1.797-14.018 2.7-21.23 2.7zm44.976 0h-1.33l-.617-.23c1.347-.704 2.643-1.423 3.943-2.19l5.627 2.06c-2.497.21-5.043.36-7.625.36zm14.11-1.204l-8.795-3.184c1.215-.77 2.422-1.52 3.6-2.318l11.542 4.21c-2.115.508-4.214.922-6.346 1.29zm11.287-2.684l-13.613-4.95c1.07-.806 2.137-1.608 3.207-2.46l15.454 5.613c-1.66.652-3.34 1.267-5.047 1.795zm9.14-3.465l-16.957-6.188c.98-.856 1.907-1.714 2.85-2.562l18.37 6.668c-1.37.708-2.802 1.42-4.262 2.082zm7.8-3.99l-19.56-7.11c.873-.885 1.705-1.76 2.527-2.69l20.725 7.52c-1.22.81-2.458 1.573-3.69 2.28zm6.758-4.332L314.3 256.73c.766-.93 1.513-1.85 2.258-2.808l22.65 8.25c-1.065.846-2.143 1.65-3.252 2.432zm5.946-4.64l-23.426-8.537c.673-.923 1.337-1.916 1.985-2.864l24.335 8.823c-.95.885-1.913 1.75-2.894 2.58zm5.298-4.87l-25.032-9.118c.624-.95 1.195-1.983 1.78-2.963l25.782 9.398c-.832.893-1.652 1.804-2.53 2.683zm4.657-5.126l-26.414-9.588c.54-1.023 1.034-2.04 1.57-3.05l27.08 9.864c-.73.92-1.47 1.878-2.235 2.773zm4.125-5.293l-27.657-10.048c.454-1.065.886-2.11 1.32-3.148l28.292 10.285c-.613.997-1.293 1.948-1.955 2.91zm3.61-5.482l-28.815-10.51c.368-1.048.737-2.122 1.118-3.19l29.426 10.73c-.55.983-1.128 1.97-1.73 2.97zm3.138-5.65l-29.93-10.92c.336-1.094.625-2.187.912-3.28l30.498 11.11c-.487 1.03-.973 2.05-1.48 3.09zm2.68-5.833l-30.97-11.287c.25-1.115.508-2.24.715-3.37l31.517 11.468c-.403 1.094-.82 2.15-1.262 3.19zm2.21-6.004l-31.938-11.653c.163-1.102.344-2.26.462-3.418l32.457 11.827c-.29 1.09-.61 2.172-.98 3.244zm1.786-6.185l-32.926-11.976c.113-1.157.16-2.323.227-3.513l33.46 12.19c-.218 1.105-.487 2.2-.76 3.3zm1.292-6.312L336.83 196.9c.02-.536.037-1.074.037-1.62v-1.974l34.307 12.47c-.127 1.153-.3 2.314-.476 3.433zm.82-6.512l-34.65-12.614v-3.573l34.89 12.665c-.065 1.19-.164 2.376-.24 3.522zm.35-7.42c0 .26-.017.512-.017.753l-34.984-12.744v-3.61l35 12.742v2.86zm0-6.03l-35-12.758v-3.624l35 12.76v3.62zm0-6.837l-35-12.717v-3.627l35 12.75v3.594zm0-6.81l-35-12.71v-3.614l35 12.744v3.58zm0-6.79l-35-12.714v-3.624l35 12.73v3.61zm0-6.8l-35-12.715v-3.617l35 12.71v3.62zm0-6.8l-35-12.722v-3.61l35 12.704v3.627zm0-6.8l-35-12.74v-3.587l35 12.71v3.62zm0-6.797l-35-12.744v-3.59l35 12.722v3.61zm0-6.796l-35-12.757v-3.617l35 12.75v3.625zm0-6.804l-35-12.746v-3.624l35 12.75v3.62zm0-6.836l-35-12.706v-3.62l35 12.754v3.573zm0-6.797l-35-12.708v-3.627l35 12.726v3.61zm0-6.8l-35-12.706v-3.62l35 12.706v3.62zm0-6.8l-35-12.705v-3.62l35 12.706v3.62zm0-6.796l-35-12.745v-3.586l35 12.715v3.613zm0-6.785l-35-12.768V70.85l35 12.717V87.2zm0-6.81l-35-12.75v-3.61l35 12.742v3.617zm0-6.807l-35-12.742v-3.62l35 12.75v3.613zm0-6.82l-35-12.72V50.42l35 12.758v3.586zm0-6.808l-35-12.707V43.62l35 12.752v3.582zm0-6.8l-35-12.71V36.83l35 12.708v3.617zm0-6.795l-35-12.7v-3.633l35 12.71v3.624zm0-6.795l-35-12.723v-3.61l35 12.71v3.623zm0-6.803l-34.18-12.46h9.903l24.275 8.838v3.622zm0-6.794l-15.515-5.665h9.944l5.57 2.04v3.625zm85.04 52.445l-.53-.247-.315-.428-.25-.57-.27-.577-.294-.62-.253-.756-.24-.738-.19-.643-.19-.624-.254-.685-.257-.693-.236-.7-.19-.61-.192-.692-.312-.64-.255-.683-.253-.62-.164-.7-.202-.71-.255-.66-.308-.69-.2-.758-.247-.638-.193-.566-.12-.56-.19-.76-.252-.678-.22-.763-.267-.68-.28-.635-.31-1.444-.23-.68-.25-.563-.194-.584-.255-.74-.307-.69-.25-.747-.14-.634-.235-.744-.388-1.203-.25-.62-.37-.063-.194.53-.255.718-.198.693-.168.625-.198.698-.245.8-.26.704-.225.62-.263.61-.19.65-.388 1.436-.308 1.203-.257.74-.25.763-.533 1.436-.154.56-.19.567-.31.755-.202.565-.48 1.382-.192.753-.2.7-.367.685-.127.62-.18.638-.504 1.44-.257.677-.315.58-.304.803-.136.446-.25.812-.203.647-.223.557-.197.69-.25.676-.37.582-.328.428-.567.247-.74.092h-.697l-.82-.146-.73-.51-.454-.693-.195-.738-.172-.63-.257-.634-.29-.733-.214-.648-.5-1.32-.318-.74-.19-.642-.144-.68-.273-.638-.277-.747-.234-.6-.2-.658-.255-.676-.306-.642-.254-.743-.5-1.324-.2-.696-.233-.678-.134-.644-.19-.62-.177-.433-.194-.506-.255-.59-.248-.557-.194-.68-.253-.75-.312-.63-.175-.665-.134-.71-.194-.674-.62-1.333-.2-.636-.546-1.438-.2-.697-.124-.69-.223-.558-.27-.663-.324-.657-.25-.686-.24-.692-.255-.758-.304-.746-.2-.697-.07-.678-.275-.64-.1-.624.313-.44.606-.183h1.33l.583.063.492.247.327.438.37.637.305.62.2.684.22.575.27.748.185.698.143.743.223.637.263.56.328.62.23.753.084.71.19.678.272.697.22.63.182.674.32.636.313.77.242.727.2.63.164.628.27.69.13.63.194.63.315.684.19.634.23.742.14.692.254.692.19.63.272.687.22.64.252.684.247.696.317.676.187.63.195.69.252.686.18.642.19.62.31.653.2.667.19.755.31.56h.304l.2-.502.274-.645.272-.73.273-.654.425-1.424.192-.684.506-1.32.24-.656.187-.602.255-.676.253-.767.19-.7.213-.62.274-.63.197-.75.257-.725.19-.546.248-.617.437-1.317.25-.746.314-.687.253-.684.07-.7.236-.72.282-.602.273-.676.145-.653.19-.736.256-.688.23-.69.198-.62.31-.546.198-.655.504-1.438.12-.698.19-.686.304-.61.263-.77.19-.64.252-.52.37-.413.504-.31.683-.062.51.254.382.434.37.645.248.728.257.657.195.61.176.683.246.64.2.802.25.694.31.656.313.723.114.62.26.642.19.43.31.755.13.698.258.742.252.638.31.743.203.64.225.77.192.665.312 1.32.195.566.502 1.318.31.684.25.752.26.692.174.557.194.7.313.7.316.683.437 2 .318.692.248.703.195.625.208.68.29.7.246.757.25.68.195.442h.253l.31-.503.313-.7.253-.676.19-.653.163-.725.207-.753.25-.692.26-.573.248-.567.255-.68.253-.695.188-.783.238-.6.25-.742.2-.638.24-.63.2-.75.375-1.236.245-.652.316-.77.312-.657.13-.573.183-.665.19-.71.252-.76.25-.72.317-.66.253-.56.13-.63.18-.69.19-.686.375-.7.245-.758.197-.68.25-.504.203-.694.23-.803.19-.694.197-.63.203-.562.227-.64.25-.68.344-.627.346-.44.475-.31.662-.137h.703l.672.055.506.254.25.388.065.625-.255.757-.31.756-.198.743-.186.58-.27.624-.273.678-.203.646-.19.77-.196.722-.25.66-.31.602-.257.685-.31.637-.43 1.358-.387 1.403-.25.73-.316.647-.187.744-.27.56-.297.64-.234.737-.195.593-.25.616-.316.698-.127.796-.258.698-.247.624-.243.616-.188.71-.318.692-.246.622-.137.618-.223.7-.207.776-.307.783-.198.446-.312.757-.382 1.44-.254.657-.308.6-.258.565-.31.745-.2.754-.272.695-.403 1.25-.366.638-.393.49-.5.247-.686.03-1.475-.092zm44.25 0h-.685l-.634.062-.82-.062h-.747l-.69.092h-.68l-.698.053-1.505-.053h-.438l-2.2-.03-.875-.06h-1.376l-.646-.056-1.56.053-.754.062h-.694l-.74-.062h-.698l-.74.092-.584.053-1.377-.083h-.877l-.428.03-1.57-.03-.643-.062-.49-.247-.194-.428-.115-1.42v-2.235l.06-.757v-.675l-.06-.69-.017-.75.076-.69v-1.33l-.077-.743-.06-.697.076-.674.06-.642-.077-.76-.06-.84.06-.803.076-.727-.06-.654-.077-.667v-.685l.076-.64v-.737l.06-.754v-.758l-.06-.696v-.743l.06-.756-.06-.698v-1.38l-.018-.783.077-1.34v-.692l-.06-.702-.077-.738v-2.195l-.056-.758v-.682l.057-.585.06-.812v-.79l.133-.71.51-.496.73-.146h2.217l1.438.08h.72l.782-.08.756-.055h1.47l1.368.07h.8l.446-.016.812-.055h.82l.692.054.746-.055 1.426.07h2.188l.598-.017h4.314l.7.018.677.237.39.19.255.358.117.548.073.613-.017.62-.273.407-.408.29-.697.177-.742-.115-.76.055h-.874l-.44-.055h-.82l-.753.114h-.816l-1.308-.06h-2.197l-.758-.057-2.078-.062-.758-.016-.74.017-.693.118-.744-.056-.585-.062-.733.062h-.87l-1.58-.08h-.39l-.748.135-.44.255-.25.447-.147.8-.043.442v.874l.072 1.518v4.257l.06.584v1.555l.06.687.12.747.442.55.756.147 1.502-.122.64.064h.618l.758-.09h1.503l1.32.026h.688l1.447.123 1.5-.122 2.072-.067h1.32l2.26.13.752-.06h.747l.754.063.63.183.493.497.256.616v.71l-.312.693-.5.49-.684.073-.7-.055h-.756l-1.38.11-.738-.11h-.764l-1.506.056-.436.055h-1.51l-.777-.11h-.725l-1.465.175h-1.296l-.764-.118-.75-.055h-.736l-.58.11-.74-.056h-2.023l-.675.118-.453.255-.307.447-.148.555v2.143l-.043.743v.695l.072.758.06.777v.716l-.06.702-.03.77.03.78.06.602v.603l-.06.82.12.746.25.382.438.19.63.12h.683l1.404-.12h.73l2.076.056 1.574.124 1.378-.124H492l.624-.055h.65l.726.12h3.637l.7-.063.62-.054 1.455.12h1.557l.56.117.44.247.26.39.16.685.033.634-.253.625-.6.456-.722.227-.692-.064zm-49.61 57.855l-1.13.815-1.203.756-.674.437-.76.383-.43.237-.69.31-.69.26-1.395.288-.795.273-.702.072-1.44.062-.81.06-1.207-.12-.76-.056-1.552-.018-.816-.057h-.386l-.8-.18-.695-.257-.672-.19-1.406-.505-.82-.31-.49-.133-.748-.31-.64-.434-.69-.45-.365-.246-.637-.43-.566-.45-.62-.506-.447-.446-.492-.545-.38-.58-.436-.568-.443-.623-.39-.628-.31-.63-.738-1.256-.315-.626-.5-1.326-.2-.64-.128-.74-.123-.635-.147-.738-.104-.7-.055-.76v-.782l-.115-.768v-1.15l.115-.82.054-.737v-.696l.104-.684.147-.698.137-.757.172-.745.142-.64.312-.73.367-.646.255-.68.253-.697.367-.684.758-1.156.372-.67.445-.553.38-.52.542-.5.453-.502.506-.538.568-.51.66-.45.547-.37.56-.31.625-.388.563-.435.62-.274.696-.29.766-.255.67-.07.688-.22 1.503-.403.695-.144 1.367-.054 1.466-.205.812-.046.73.046.657.092.617.114.758.053.758.077.675.19.63.185.698.2.623.183 2.64 1.094.625.35.564.453.504.48.625.392.566.557.32.62.06.45-.2.525-.366.527-.562.386-.504.12-.562-.12-.646-.365-1.044-.895-.562-.373-.636-.373-.622-.33-.69-.304-.695-.18-.762-.19-1.433-.505-1.374-.124-.76.06-1.247-.065-.817.008-1.57.246-2.002.44-.638.187-1.247.574-.636.247-.688.31-.562.374-.605.386-.597.51-1.136 1.24-.3.373-.504.573-.37.63-.375.5-.382.51-.312.68-.255.696-.25.63-.315.614-.246.563-.153.754-.102.76-.117.62-.056.683-.078.763-.067.693-.118.755v.74l.24 1.325.076.755.175.76.137.677.178.696.252.688.193.693.25.747.254.563.37.584.817 1.312.44.55.506.454.432.505.565.507 1.203.938.56.385.622.435.648.307.73.188.763.194 1.37.513.702.18 1.44.186 1.498.126h.605l.6-.063.812-.118.62-.082.702-.05.82-.18.674-.2.565-.182.69-.325.747-.366.383-.13.766-.38.617-.365.564-.328.563-.43.562-.45.564-.378.507-.073.504.14.504.37.427.505.373.57-.057.697-.5.68-.693.387zm24.278-32.773l.732.058h.705l.7.134.74.246.698.246.816.19.624.25.563.256.66.25 1.22.625.565.388.622.428.64.442.624.433.448.447.987.875.448.62.427.583.452.56.366.57.326.615.258.684.308.633.31.63.203.683.308.694.308.618.207.702.225.683.137.585.113.738.06.815.074.633.062.693.055.75v1.247l-.053.76-.117.693-.02.818-.06.684-.114.565-.09.692-.223.764-.317.793-.245.584-.51 1.35-.19.6-.31.567-.373.62-.44.657-.377.604-.387.505-.37.57-.447.617-.5.454-1.125.983-.563.39-.562.54-.622.34-.624.31-.58.26-1.187.563-.69.25-1.384.5-.693.18-.675.195-.64.138-.727.116-1.367.06h-2.415l-.385.055h-.758l-1.498-.23-.624-.075-1.52-.313-1.243-.504-.694-.257-.707-.308-.55-.312-.624-.316-.687-.31-.602-.34-.546-.42-.556-.512-.538-.5-.514-.483-.51-.51-.442-.563-.434-.59-.38-.565-.727-1.125-.345-.68-.25-.62-.317-.646-.364-.734-.253-.59-.19-.68-.31-1.32-.156-.758-.22-.738-.13-.588-.124-.68-.058-.755-.016-.82v-.677l.015-.598.112-.727.125-.64.022-.74.055-.63.18-.747.193-.758.13-.627.317-1.314.5-1.445.316-.635.733-1.32.452-.628.402-.618.346-.564.436-.45.494-.446.454-.556.567-.564.56-.484.5-.328.433-.435.565-.504.638-.41.746-.293.636-.254.623-.168.62-.256 1.316-.62.634-.137.693-.124.692-.133h1.505l1.487-.114 1.27-.09h.816l.7.09zm-16.44 20.518l.056.68.123.696.133.7.22.74.525 1.33.253.69.253.68.337.63.293.57.375.555.427.557 1.02 1.094.62.564.274.365.618.528 1.242.73.6.273.663.31.685.25.634.24.742.13.63.2.69.113.76.112.697.137h.68l.7-.056h1.56l.756-.064 1.435-.19 1.26-.383.762-.24.685-.252.613-.255.586-.314.57-.328 1.18-.943.562-.437 1.016-1.04.424-.6.326-.563.434-.497.312-.57.95-2.062.252-.62.224-.702.398-1.322.055-.72.14-.78.117-.64v-.814l.06-.68-.06-.627-.12-.754-.08-.625-.058-.696-.056-.75-.196-.76-.25-.684-.116-.696-.2-.624-.308-.71-.252-.672-.316-.62-.44-.506-.49-.624-.384-.604-.367-.548-.45-.55-.62-.568-1.01-.815-.564-.365-.684-.436-1.2-.694-.683-.195-1.322-.506-.755-.237-.764-.073-.612-.123h-2.904l-.73.064-1.517.06-.76.132-.737.26-1.38.424-.62.195-.546.31-.72.31-.647.363-.55.33-1.13 1.02-.492.555-.445.486-.39.447-.487.685-.498.578-.37.53-.286.6-.533 1.437-.387 1.438-.175.645-.146.613-.13.736-.113.764v1.578l-.062.557-.06.627.12.812.127.7zm53.374-19.95l.762.054.742.136.757.118.69.06.684.193.668.314.72.256.647.128.667.31.7.314.616.306 1.248.82 1.128.967.56.53.548.452.456.56.398.56.422.507.383.62.376.56.625 1.32.388.65.25.737.258.637.274.74.273.637.127.684.146.626.11.64.06.74.104.817v2.2l.03.688-.08.7-.174.744-.05.635-.273 1.353-.12.65-.153.7-.22.672-.31.694-.33.762-.364.63-.374.574-.327.62-.313.62-.485.62-.45.564-.382.55-.37.546-.563.546-.623.506-.506.447-.446.45-.562.365-.744.365-1.105.515-.655.388-.76.31-.742.192-.635.29-.746.255-1.513.196-.68.1-.64.16h-.74l-.812-.067-.76.065-.64.054-1.38-.118h-.876l-1.322.065h-.81l-.38-.066h-.692l-.683.12h-2.31l-.64-.055-1.273.096-.673-.162-.44-.305-.254-.39-.12-.678v-.653l-.12-.797v-.76l-.033-.633v-.686l.094-.694.06-.826v-.783l-.06-.6v-.676l.06-.764-.06-.694-.06-.837v-1.343l.06-.7.115-.694v-.693l.064-.697v-.74l-.064-.694-.057-.76v-.738l.057-.76-.057-.698-.06-.82v-3.516l-.06-.74v-.63l.12-.746v-.644l-.06-.738v-.697l.06-.71v-1.987l-.06-.815v-.814l.06-.688v-1.435l.132-.58.24-.487.324-.25.628-.137.71.066.727-.067h2.133l.684.066h1.395l.623.02 2.194.05 1.996-.137h1.447l1.448.195zm-9.094 32.205h.745l.69.06.63-.06h.696l.79.113.707-.053h.66l.778.118h1.374l2.08-.227.703-.02.814-.187.487-.084.762-.22.62-.256.586-.33.73-.313.703-.36.623-.418 1.126-.718.497-.508.876-1.02.512-.56.4-.616.356-.574.306-.566.377-.565.308-.62.33-.638.254-.73.236-.71.194-.672.19-1.328.12-.698.076-.764v-.76l-.016-.556-.122-.63-.19-1.538-.06-.77-.17-.7-.147-.684-.247-.697-.373-.617-.19-.706-.192-.678-.377-.64-.39-.63-.42-.56-.563-.504-.504-.563-.448-.506-.565-.427-.62-.447-.45-.463-.486-.357-.692-.423-.763-.256-.743-.313-.58-.183-1.435-.45-.743-.203-.64-.048-.756-.12-.814-.055-.626-.034h-.62l-1.442.09-.695-.055h-.687l-.69-.034-1.5.035-.696-.034h-.698l-.743.035-.634.247-.492.63-.19.675v.565l.054.64v.814l-.115.744.06.637.055.74-.055.765-.06.693.06.73.055.822v.45l-.055.813v.702l-.06.675.06.657.055.728v.756l-.055.758-.06.62v.693l.06.805v.7l.055.63.064.694v1.5l-.12.635-.06.814v1.332l.06.746v1.44l-.06.746v2.025l.114.682.312.388.446.262.674.108.584-.052zm54.688 3.39h-.682l-.68.054-.818-.054h-.7l-.695.097h-.685l-.7.035-1.493-.035h-.444l-2.203-.043-.875-.054h-1.385l-.674-.065-1.516.065-.764.054h-.728l-.7-.054h-.703l-.74.097-.593.035-1.367-.078h-.874l-.432.043-1.573-.043-.673-.054-.45-.256-.19-.423-.12-1.413v-2.246l.056-.762v-.695l-.055-.673-.06-.76.114-.7v-1.32l-.114-.744-.016-.697.076-.684.055-.64-.114-.754-.017-.812.016-.82.114-.746-.054-.633-.076-.683v-.65l.076-.674v-.71l.055-.786v-.748l-.054-.707v-.744l.056-.756-.054-.693v-1.38l-.06-.752.114-1.35v-.72l-.055-.7-.075-.73v-2.2l-.06-.753v-.653l.06-.612.015-.812v-.766l.18-.738.494-.5.708-.13h2.244l1.447.07h.696l.79-.07.766-.066h1.455l1.38.087h.775l.472-.02.815-.067h.808l.705.067.742-.067 1.395.087h2.19l.63-.02h4.273l.74.02.64.227.425.19.253.37.12.56.077.584-.06.623-.262.434-.384.293-.728.147-.705-.112-.755.055h-.874l-.446-.055h-.815l-.778.112h-.82l-1.278-.058h-2.203l-.75-.055-2.077-.035-.8-.046-.696.045-.697.09-.74-.055-.602-.036-.723.035h-.875l-1.574-.083h-.383l-.747.136-.444.246-.252.466-.18.782-.02.445v.875l.073 1.514v4.26l.072.617v1.517l.055.698.075.738.492.57.754.13 1.49-.115.645.056h.627l.755-.072h1.5l1.317.016h.692l1.44.115 1.497-.115 2.087-.075h1.316l2.25.132.762-.057h.7l.8.057.633.178.478.5.27.63v.692l-.312.693-.504.493-.683.08-.698-.042h-.8l-1.376.1-.705-.1h-.756l-1.547.044-.395.055h-1.52l-.8-.1h-.696l-1.495.162h-1.26l-.76-.12-.75-.043h-.746l-.602.1-.72-.056h-2.014l-.682.12-.45.244-.31.453-.182.56v2.15l-.018.73v.693l.072.767.07.802v.7l-.07.692-.055.796.056.764.07.62v.585l-.07.82.125.74.25.383.445.206.626.107h.668l1.41-.108h.74l2.077.05 1.577.112 1.377-.113h1.44l.622-.05h.64l.74.107h3.597l.728-.06.63-.05 1.448.11h1.564l.55.118.455.26.256.38.128.687.067.643-.257.62-.63.466-.69.212-.685-.054zm10.34-18.603h.7l1.498.107.637-.043.77-.066h.783l1.52.107.705-.042.672-.12h.687l1.503.12h.705l.742-.065.757.064h.75l.694-.12h.694l.624.162.386.29.312.364.228.505v.62l-.228.622-.56.507-.76.136-.695.113h-.693l-.75-.06h-.756l-.684.06h-1.438l-.695-.115h-3.638l-1.453.113h-.778l-.782-.06-1.405.12-1.426-.12-.744-.078-.505-.49-.19-.694-.06-.737.25-.585.56-.364.688-.152 1.376-.108zm-123.92 49.897l-.565-.5-.572-.447-.613-.43-1.318-.583-.7-.253-.776-.17-.723-.2-.645-.172-.736-.082-.815-.12h-.51l-.82-.062h-.687l-.743.128-.76.055-.817.08-.44.11-.82.12-.676.143-1.204.458-.688.287-.62.37-.56.45-.503.57-.506.51-.37.557-.302.62-.203.63-.072 1.428v.758l.01.762.268.68.417.583.508.546.563.44.555.39.634.31.606.264.71.237.763.258.715.18 1.477.383.757.18.626.096.684.154.686.198 2.263.306.69.147.747.11.757.18.7.134.684.19 2.016.812.74.26 1.12.503.59.37.678.5.624.513.505.538.446.5.37.394.387.63.312.674.195.702.113.647.115.73.138.764.12.75.054.784-.055.655-.18.63-.502 1.43-.193.58-.312.68-.367.626-1.006 1.123-.954.954-.568.375-.62.31-.62.326-.64.25-.624.242-.68.246-.7.137-.728.19-1.466.37-.624.124-1.38.074-.698.12h-.743l-.76-.06-1.375.06-1.382-.148-.7-.047-.718-.123-.777-.123-.64-.247-.737-.134-.7-.248-.627-.247-1.204-.627-.674-.312-.656-.367-.546-.507-.622-.383-.565-.37-.453-.45-.543-.57-.5-.615-.31-.643-.324-.546-.255-.55.19-.71.503-.502.624-.373.636-.137.748.137.563.43.383.563.477.566.52.557.563.45.575.44.53.436 1.85.888.61.255.766.174 1.32.313 2.08.31h.756l.62.078h.69l.874-.046.635-.087.623-.125.698-.062.783-.07.656-.203.62-.284.697-.274.685-.28.64-.2.564-.347 1.065-.98.49-.616.313-.592.285-.548.273-.692.073-.697-.054-.796-.074-.76-.118-.593-.193-.61-.31-.743-.372-.56-.383-.507-.51-.497-.56-.393-.685-.315-1.38-.56-.626-.2-.7-.174-.75-.246-.745-.254-.583-.197-.62-.176-.71-.036-.73-.155-.757-.117-.757-.02-.748-.173-.69-.196-.754-.176-.745-.133-.634-.193-.74-.176-.763-.195-.704-.192-.675-.25-1.88-.82-.64-.372-.563-.4-1.058-.912-.504-.567-.44-.683-.434-.63-.44-1.198-.2-.698-.113-1.632.055-.734.125-.645.074-.743.176-.812.25-.64.617-1.247.51-.6.563-.55.51-.56 1.003-.822.565-.366 2.14-.813 1.184-.428.757-.294.7-.21.805-.135 1.51-.2h.624l.69.026h.762l1.5-.08.673.08.59.175.685.135.694.06.744.15.634.16.743.1.757.27 1.13.565.586.328.613.31.624.374.567.446.56.43.5.5.512.565.43.438.25.57v.506l-.176.37-.443.387-.626.368-.695.198-.758-.197-.684-.41-.505-.527zm11.468 27.786v-.725l.12-.774-.06-.758-.06-.657.118-1.34v-.757l-.06-.64v-.747l-.06-.754-.057-.7.06-.74v-1.432l.134-1.394-.134-1.34.06-.785v-2.787l-.06-.735.117-.743v-.766l-.118-.764v-.682l.06-.688v-.8l-.06-.767.06-.63v-.687l-.06-.65v-1.604l.06-.44.057-.763-.118-1.438.06-.752v-2.88l.073-.646.237-.482.388-.25.68-.078h.7l.715.077.472.253.19.512.12.673.038.692-.04.564-.058.692v2.19l-.06.655v1.55l.06.64.098.735-.04.753-.118.7v.8l.12.693-.06.7v.68l.06.76.038.74-.04.644-.118.742v.757l.06.756v2.132l-.06.82v.375l.06.812.1.81.033.757-.034.767-.04.68-.058.615v1.366l-.06.773v.82l.118.755.04.692v1.304l-.1.64v.82l.1 1.437-.22.754-.56.564-.757.188h-.7l-.62-.12-.37-.26-.313-.42-.074-.704-.06-.758zM494 170.76l-.557-.372-.717-.264-.602-.375-.567-.37-.565-.25-.68-.257-.643-.135-.74-.234-.635-.258-1.383-.185-.76-.063-2.062-.064-.755.063-1.547.063-.705.135-.662.282-1.347.392-.57.31-.567.264-.68.237-.7.374-.74.393-.898.745-.554.558-.492.556-.503.585-.313.31-.562.63-.383.617-.377.594-.305.666-.328.63-.253.7-.235.616-.138.67-.19.71-.183.695-.06.627-.07.684-.116.698-.063.696-.034.63v1.533l.15.714.064.67.07.766.24.7.295 1.323.28.746.375.688.367.626.25.618.32.506.305.322.29.438.472.502.44.455.454.553.482.435 1.122.7.646.43.623.327 1.258.742.742.246.64.132.737.23.756.203.822.07h.38l.82.126h1.615l.58-.066h1.438l.752-.08.69-.165.622-.147.585-.23.673-.19.694-.195 1.312-.755.602-.315.547-.363.543-.448.505-.51.327-.43.23-.5.077-.758.062-.683-.1-1.423v-.713l.1-.7v-.744l-.06-.688-.04-.574.04-.692-.253-.742-.608-.507-.71-.19H492l-1.38-.118-1.516.17-.687-.055-1.45-.055-1.56-.12-.69.057-.566-.128-.437-.263-.29-.31-.21-.505-.057-.62.23-.625.255-.45.39-.306.685-.12.75.12 1.382-.063.75.064h.763l1.303-.063.76-.055h1.477l1.477.12h.71l.67-.12h.698l.8.12.75.066.63.054.386.183.19.45.124.743.058.757v.693l-.118.738v.7l.178.698v2.258l-.06.682v2.138l-.06.697.06.747v.748l-.118.756-.193.575-.31.497-.4.562-.55.51-.744.475-1.066.803-.63.467-.63.393-.63.368-.616.313-.7.318-.722.248-.656.248-.682.193-.757.195-.753.174-.707.11-1.497.09h-3.517l-.73-.064-.766-.074-.7-.236-1.317-.256-2-.63-.76-.317-.625-.254-.622-.3-.593-.438-1.352-.76-.562-.387-.442-.498-.507-.573-.565-.482-.398-.328-.477-.51-.5-.676-.39-.63-.368-.628-.256-.57-.308-.623-.432-.68-.28-.586-.61-2-.31-1.32-.118-.742-.133-.698-.126-.683-.055-.692v-1.505l.054-.752v-.756l.058-.68v-.766l.067-.697.133-.617.248-.655.12-.727.137-.695.8-2.15.282-.667.345-.63.38-.562.44-.64.436-.62.44-.56.42-.624.455-.447.51-.447.402-.62.547-.455.62-.42.688-.416.606-.404.593-.31.62-.365.626-.395.638-.25.625-.174.622-.255.696-.25.775-.144.67-.11.753-.06.686-.017.632-.112.877-.144.74-.11h.69l.706.056h.68l.76.055.752.145.75.112 1.45.33.743.217 1.32.518.623.32.58.326.74.31.632.374.69.302.62.327.565.492.502.444.447.574.162.44-.164.5-.372.625-.58.462-.525.162-.546-.163-.677-.276-.51-.44zm36.576 20.518l-.06-.664-.056-.713-.02-.635v-1.367l-.127-.703v-.692l.07-.684.056-.62v-2.835l-.057-.688-.07-.81.07-.7v-2.187l.055-.638v-.657l-.056-.78v-.696l.055-.71v-1.48l-.182-1.44.055-.702.07-.756.076-1.367-.076-.693-.126-1.514.2-.746.56-.443.814-.118h.803l.63.178.477.502.215.702.06.747v.695l-.174.693v.69l.115.744v5.02l.06.628.016.63v.766l-.075 1.554.06.633v.748l-.12 1.51.06.735-.06.654-.114.614.06.698.057.82-.055.73.055.602v.664l-.055.758v2.824l.055.758.06.72v2.295l-.06.73-.055.642.055.68.06.757-.06.755v.703l.06.736-.214.648-.53.482h-.753l-.56-.174-.39-.31-.5-.393-.493-.624-.383-.625-.504-.5-1.064-1.13-.382-.447-.427-.562-.323-.496-.492-.574-.51-.625-.438-.497-.435-.574-.5-.5-.39-.502-.428-.564-.508-.684-.5-.502-.43-.444-.447-.563-.39-.57-.366-.62-1.01-1.13-.43-.545-.364-.548-.392-.537-.45-.573-.482-.566-.518-.51-.437-.558-.438-.536-.44-.512-.503-.57-.428-.578-.448-.57-.443-.678-.256-.374-.493-.565-1-1.075-.384-.565-.43-.528-.45-.656-.487-.62-.388-.51-.445-.446-.49-.51-.444-.61-.446-.436-.312.127-.057.555v.697l-.06.688.06.63.056.745-.057.757v.816l-.06.672v.6l.06.675.056.694-.057.766.056.727v.697l.064.763v.682l-.064.684-.057.69v.885l.12.746.012.684v.7l-.012.695-.064.687v1.516l-.056.743.12 1.514v2.81l-.064.764v2.133l-.21.768-.546.482-.747.13-.69.12-.744-.188-.503-.546-.076-.648v-.736l-.12-1.515v-.702l.055-.774-.11-1.337.056-.7.12-.76.025-.748-.09-.69-.055-.756v-.74l.055-.76.066-.636v-.63l-.065-.734v-.7l.067-.707-.065-.675V183.8l-.054-.793.055-.758.066-.64-.066-.62-.054-.763-.057-.873-.055-.688.055-.554.11-1.423-.053-.837v-.755l.054-.645.092-.68-.092-1.316-.11-.764v-1.568l.11-1.44-.054-.748v-.63l.12-1.33.25-.418.447-.198.624-.16.638.26.627.406.56.44.448.57.742 1.123.893 1.03.814 1.108.563.533.933 1.105.37.556.39.567.48.562.394.564.498.567.475.56.467.505.388.63.563.56.487.56.33.575.816 1.112.504.57.492.505.437.566.433.56.448.57.44.573.437.628.443.552.44.63.435.506.498.445.454.563.815 1.243 1.375 1.695.434.503.44.503.435.57.442.56.503.51.433.615.325.57.504.564.492.265.308-.01.136-.57v-1.502zm-100.76 50.458c.44 0 .78.05.97.228.193.128.31.37.31.713 0 .386-.11.654-.296.778-.18.168-.565.213-1.112.213h-6.813c-.323 0-.567-.06-.71-.264-.197-.146-.258-.392-.258-.728 0-.327.055-.57.248-.708.14-.182.396-.232.747-.232h1.783v-12.56h-.958c-.82 0-1.312-.083-1.547-.246-.2-.127-.273-.383-.273-.783 0-.328.06-.58.257-.73.144-.16.388-.26.71-.26h6.433c2.27 0 3.994.423 5.18 1.304 1.144.88 1.737 2.157 1.737 3.867 0 1.708-.59 2.975-1.738 3.85-1.152.875-2.888 1.285-5.18 1.285h-2.434v4.276h2.943zm-2.945-12.56v6.454h2.64c1.425 0 2.515-.265 3.276-.81.706-.53 1.086-1.333 1.086-2.427 0-1.066-.386-1.868-1.098-2.407-.75-.544-1.843-.81-3.265-.81h-2.637zm26.422 8.087c0 2-.7 3.626-2.058 4.874-1.354 1.268-3.09 1.896-5.266 1.896-2.182 0-3.92-.63-5.27-1.896-1.357-1.248-2.053-2.875-2.053-4.874 0-2.007.695-3.62 2.052-4.864 1.352-1.29 3.09-1.885 5.27-1.885 2.168 0 3.9.598 5.262 1.893 1.36 1.246 2.06 2.864 2.06 4.853zm-7.323 4.812c1.41 0 2.602-.44 3.527-1.36.884-.882 1.372-2.045 1.372-3.452 0-1.404-.493-2.572-1.384-3.47-.932-.925-2.117-1.373-3.52-1.373-1.42 0-2.605.448-3.535 1.373-.877.897-1.37 2.065-1.37 3.47 0 1.425.483 2.57 1.368 3.462.93.913 2.108 1.35 3.54 1.35zm20.99 1.593c-.21 0-.34-.01-.43-.118-.054-.123-.1-.302-.1-.574v-1.148c-.556.716-1.282 1.257-2.124 1.618-.838.405-1.707.588-2.708.588-1.733 0-3.216-.63-4.42-1.878-1.156-1.228-1.753-2.814-1.753-4.656 0-1.93.644-3.52 1.88-4.79 1.258-1.3 2.86-1.915 4.747-1.915.94 0 1.805.15 2.553.506.777.33 1.434.84 1.98 1.478v-5.326h-.727c-.805 0-1.333-.07-1.57-.196-.262-.163-.364-.437-.364-.8 0-.33.09-.574.298-.77.172-.152.455-.252.832-.252h2.832c.28 0 .504.06.613.163.145.073.174.237.174.406v15.737h.635c.446 0 .78.05.993.228.22.128.303.37.303.713 0 .327-.065.565-.27.73-.163.204-.398.263-.69.263h-2.687zm-9.145-6.257c0 1.315.433 2.366 1.258 3.188.832.812 1.88 1.203 3.133 1.203 1.263 0 2.356-.41 3.177-1.27.82-.86 1.234-1.93 1.234-3.236 0-1.288-.414-2.374-1.234-3.186-.82-.837-1.898-1.274-3.177-1.274-1.308 0-2.356.438-3.16 1.274-.81.83-1.23 1.942-1.23 3.304zm25.905-5.78v-.038c0-.31.108-.52.263-.688.208-.122.48-.205.83-.205.385 0 .652.117.805.345.14.21.225.656.225 1.375v2.576c0 .352-.104.607-.268.762-.2.206-.47.266-.786.266-.267 0-.5-.055-.665-.22-.17-.123-.422-.42-.68-.892-.438-.763-.982-1.333-1.622-1.692-.617-.396-1.367-.588-2.206-.588-1.408 0-2.603.418-3.525 1.276-.874.857-1.357 1.974-1.357 3.318 0 1.39.455 2.528 1.312 3.417.863.84 1.975 1.313 3.342 1.313.634 0 1.24-.102 1.804-.256.56-.2 1.094-.46 1.586-.772.16-.12.394-.276.694-.548.613-.48 1.07-.73 1.44-.73.282 0 .515.104.704.273.183.2.273.437.273.73 0 .724-.703 1.452-2.097 2.213-1.39.796-2.835 1.167-4.43 1.167-1.99 0-3.683-.63-5.02-1.945-1.34-1.272-2.035-2.886-2.035-4.825 0-1.938.695-3.542 2.028-4.837 1.334-1.326 3.02-1.944 4.992-1.944.727 0 1.422.072 2.15.29.7.17 1.45.476 2.242.858zm15.842 10.29c-.803.665-1.635 1.194-2.498 1.562-.904.383-1.843.55-2.77.55-1.39 0-2.507-.37-3.367-1.174-.862-.767-1.258-1.75-1.258-3.008 0-1.44.557-2.588 1.687-3.396 1.1-.803 2.725-1.226 4.746-1.226.538 0 1.08.04 1.632.117.547.082 1.11.163 1.695.333v-.11c0-1.065-.252-1.85-.76-2.355-.513-.505-1.297-.763-2.39-.763-.748 0-1.544.18-2.446.563-.856.4-1.458.582-1.75.582-.273 0-.49-.09-.682-.326-.164-.224-.27-.504-.27-.82 0-.55.506-1.044 1.57-1.4 1.018-.4 2.318-.57 3.91-.57 1.64 0 2.898.396 3.73 1.23.84.84 1.24 2.082 1.24 3.71v6.315h.7c.63 0 1.105.035 1.323.2.215.113.328.374.328.74 0 .346-.093.6-.273.74-.203.196-.486.25-.832.25h-2.186c-.264 0-.503-.05-.655-.227-.155-.147-.285-.364-.355-.666l-.07-.855zm-.13-4.395c-.51-.153-1-.3-1.51-.383-.463-.046-.922-.092-1.388-.092-1.44 0-2.575.23-3.41.704-.83.478-1.218 1.146-1.218 1.968 0 .637.258 1.152.766 1.545.508.425 1.148.62 1.97.62 1.163 0 2.257-.307 3.28-.944 1.002-.59 1.51-1.25 1.51-1.913v-1.505zm7.61 5.152v-2.48c0-.393.085-.685.22-.894.18-.156.43-.26.777-.26.36 0 .66.26.88.79.173.304.282.547.427.724.366.496.94.915 1.7 1.208.783.272 1.64.445 2.532.445 1.01 0 1.792-.188 2.39-.602.56-.39.87-.938.87-1.56 0-.683-.236-1.133-.708-1.42-.474-.273-1.295-.436-2.453-.436h-.763c-1.896 0-3.348-.305-4.332-.978-1.027-.663-1.514-1.613-1.514-2.854 0-1.248.476-2.186 1.476-2.87.952-.665 2.315-1.01 4.086-1.01.7 0 1.422.07 2.188.302l1.15.3c.114 0 .302-.103.592-.274.288-.2.57-.273.848-.273.325 0 .546.107.73.326.138.23.224.586.224 1.06v1.64c0 .493-.086.82-.207 1.076-.185.22-.42.293-.747.293-.276 0-.62-.237-1.015-.694-.298-.338-.523-.574-.7-.73-.53-.478-1.05-.78-1.605-1.003-.563-.2-1.187-.31-1.948-.31-.87 0-1.59.227-2.133.586-.53.4-.804.89-.804 1.486 0 .593.284.99.836 1.243.547.24 1.734.41 3.538.452 1.932.043 3.358.356 4.26.99.864.65 1.33 1.594 1.33 2.898 0 1.275-.478 2.277-1.493 3.008-.967.793-2.293 1.134-3.966 1.134-.53 0-1.124-.04-1.796-.122-.63-.114-1.438-.26-2.45-.48-.33.197-.603.343-.838.466-.223.097-.41.137-.585.137-.293 0-.546-.086-.735-.33-.16-.237-.26-.546-.26-.983zm26.433-11.085c.486 0 .814.056 1.024.246.19.133.32.392.32.738 0 .33-.115.57-.296.712-.225.2-.51.273-.893.273H528v4.634c0 1.548.183 2.53.563 3.024.417.5 1.077.738 2.04.738.854 0 1.855-.246 3.048-.738 1.187-.512 1.913-.766 2.19-.766.26 0 .474.11.64.282.212.194.27.43.27.703 0 .318-.09.582-.31.806-.235.225-.627.434-1.17.634-.93.373-1.745.64-2.456.793-.723.197-1.422.284-2.078.284-1.094 0-1.978-.195-2.734-.547-.735-.327-1.296-.837-1.64-1.55-.203-.328-.31-.692-.4-1.162-.092-.437-.135-1.115-.135-2.045v-5.085h-2.363c-.383 0-.656-.072-.856-.252-.153-.136-.258-.377-.258-.733 0-.4.142-.655.367-.78.243-.158.76-.204 1.542-.204h1.567v-3.6c0-.41.098-.71.262-.888.192-.178.452-.287.82-.287.397 0 .673.13.825.356.177.23.268.758.268 1.586v2.835h5.475z" fill="#EA576E"/></svg>