<svg id="Capa_1" xmlns="http://www.w3.org/2000/svg" viewBox="-23 -48 24 168">
	<style>
		.st0{fill:#031735;}
		.st1{fill:#EA576E;}
	</style>
		<path class="st0" d="M-11 51.5c-4.7 0-8.5 3.8-8.5 8.5s3.8 8.5 8.5 8.5 8.5-3.8 8.5-8.5c0-.5 0-.9-.1-1.4-.3-.5-.8-.5-.8-.5h-1.9v-.9c0-.9-.9-.9-.9-.9h-1.9v-.9c0-.9-.9-.9-.9-.9h-.9v-1.9c-.2-1.1-1.1-1.1-1.1-1.1m-2.4 2.8c.8 0 1.4.6 1.4 1.4s-.6 1.4-1.4 1.4c-.8 0-1.4-.6-1.4-1.4s.7-1.4 1.4-1.4m-2.8 3.8c.8 0 1.4.6 1.4 1.4s-.6 1.4-1.4 1.4c-.8 0-1.4-.6-1.4-1.4s.6-1.4 1.4-1.4m4.7 1c.8 0 1.4.6 1.4 1.4s-.6 1.4-1.4 1.4c-.8 0-1.4-.6-1.4-1.4s.6-1.4 1.4-1.4m4.7 1.8c.8 0 1.4.6 1.4 1.4s-.6 1.4-1.4 1.4-1.4-.6-1.4-1.4c0-.7.7-1.4 1.4-1.4m-5.1 2.9c.8 0 1.4.6 1.4 1.4s-.6 1.4-1.4 1.4c-.8 0-1.4-.6-1.4-1.4s.6-1.4 1.4-1.4z"/>
		<path class="st1" d="M-.3 80.3V87L-11 93.9-21.7 87v-6.7l7.1 4.5V74.1h7.2v10.8zM-2.5 106v4H-9v6.5h-4V110h-6.5v-4h6.5v-6.5h4v6.5z"/>
		<path class="st0" d="M-11 2C-5.5 2-1 6.5-1 12s-4.5 10-10 10-10-4.5-10-10 4.5-10 10-10m0-1c-6.1 0-11 4.9-11 11s4.9 11 11 11S0 18.1 0 12-4.9 1-11 1zM-11-46c5.5 0 10 4.5 10 10s-4.5 10-10 10-10-4.5-10-10 4.5-10 10-10m0-1c-6.1 0-11 4.9-11 11s4.9 11 11 11S0-29.9 0-36s-4.9-11-11-11z"/>
		<path class="st0" d="M-3.5-40.7c-.6.3-1.1.4-1.8.5.6-.4 1.1-1 1.3-1.7-.6.4-1.3.6-2 .8-.6-.6-1.4-1-2.3-1-1.7 0-3.1 1.4-3.1 3.1 0 .2 0 .5.1.7-2.6-.1-4.8-1.4-6.3-3.2-.3.5-.4 1-.4 1.5 0 1.1.5 2 1.4 2.6-.5 0-1-.1-1.4-.4 0 1.5 1.1 2.7 2.5 3-.3.1-.5.1-.8.1-.2 0-.4 0-.6-.1.4 1.2 1.5 2.1 2.9 2.1-1 .8-2.4 1.3-3.8 1.3h-.7c1.4.9 3 1.4 4.7 1.4 5.7 0 8.8-4.7 8.8-8.8v-.4c.6-.2 1.1-.7 1.5-1.5zM-11-22c5.5 0 10 4.5 10 10S-5.5-2-11-2s-10-4.5-10-10 4.5-10 10-10m0-1c-6.1 0-11 4.9-11 11s4.9 11 11 11S0-5.9 0-12s-4.9-11-11-11z"/>
		<path class="st0" d="M-7.7-20v3.2h-1.6c-.6 0-.8.6-.8 1.2v2h2.4v3.2h-2.4V-4h-3.2v-6.4h-2.4v-3.2h2.4v-3.2c0-1.8 1.4-3.2 3.2-3.2h2.4z"/>
		<path class="st0" d="M-15.3 14.6c.9 0 1.7.8 1.7 1.7s-.8 1.7-1.7 1.7c-.9 0-1.7-.8-1.7-1.7s.8-1.7 1.7-1.7M-17 6c6.6 0 12 5.4 12 12h-2.2c0-5.4-4.4-9.8-9.8-9.8V6"/>
		<path class="st0" d="M-17 10.4c4.2 0 7.6 3.4 7.6 7.6h-2.2c0-3-2.4-5.5-5.5-5.5l.1-2.1z"/>
		<path class="st0" d="M-7.3 38.3h-.8l-.3-.3c1-1.1 1.6-2.6 1.6-4.2 0-3.6-2.9-6.5-6.5-6.5-3.5 0-6.4 2.9-6.4 6.5s2.9 6.5 6.5 6.5c1.6 0 3.1-.6 4.2-1.6l.2.3v.8l5 5 1.5-1.5-5-5zm-6 0c-2.5 0-4.5-2-4.5-4.5s2-4.5 4.5-4.5 4.5 2 4.5 4.5-2 4.5-4.5 4.5z"/>
</svg>
