<?xml version="1.0" encoding="utf-8"?>
<!-- Generator: Adobe Illustrator 19.0.0, SVG Export Plug-In . SVG Version: 6.00 Build 0)  -->
<svg version="1.1" id="Capa_1" xmlns="http://www.w3.org/2000/svg" xmlns:xlink="http://www.w3.org/1999/xlink" x="0px" y="0px"
	 viewBox="0 0 150 150" style="enable-background:new 0 0 150 150;" xml:space="preserve">
<style type="text/css">
	.st0{fill:#EA586F;}
</style>
<g>
	<path class="st0" d="M98,37.2v50c0,3.5-1.8,6.9-4.7,8.9c-2.9-2-4.7-5.4-4.7-8.9v-50h-27v50c0,3.5-1.8,6.9-4.7,8.9
		c-2.9-2-4.7-5.4-4.7-8.9v-50H25v50c0,14.2,11.5,25.7,25.7,25.7h12.2c4.2,0,8.4-1.1,12.2-3.1c3.7,2,7.9,3.1,12.2,3.1h12.2
		c14.2,0,25.7-11.5,25.7-25.7v-50H98z M64.9,108.5l2.9,1.1c-0.6,0.1-1.2,0.3-1.8,0.3l-2.1-0.8C64.3,108.9,64.6,108.7,64.9,108.5
		L64.9,108.5z M65.8,107.9c0.3-0.2,0.6-0.4,0.9-0.7l4,1.5c-0.5,0.2-0.9,0.3-1.4,0.5L65.8,107.9L65.8,107.9z M67.3,106.7
		c0.3-0.2,0.5-0.4,0.8-0.7l4.9,1.8c-0.4,0.2-0.8,0.4-1.2,0.5L67.3,106.7L67.3,106.7z M68.8,105.4c0.2-0.2,0.5-0.5,0.7-0.7l5.5,2
		c-0.3,0.2-0.7,0.4-1,0.6L68.8,105.4L68.8,105.4z M70,104c0.2-0.2,0.4-0.5,0.6-0.7l6.1,2.2c-0.3,0.2-0.6,0.4-0.9,0.6L70,104L70,104z
		 M77.5,104.8l-6.3-2.3c0.2-0.3,0.4-0.5,0.6-0.8l6.5,2.4C78,104.4,77.7,104.6,77.5,104.8L77.5,104.8z M78.9,103.5l-6.7-2.4
		c0.2-0.3,0.3-0.5,0.5-0.8l6.9,2.5C79.4,103.1,79.2,103.3,78.9,103.5L78.9,103.5z M80.2,102.2l-7.1-2.6c0.2-0.3,0.3-0.5,0.4-0.8
		l7.3,2.7C80.6,101.7,80.4,101.9,80.2,102.2L80.2,102.2z M81.4,100.8L73.9,98c0.1-0.3,0.3-0.5,0.4-0.8l7.6,2.8
		C81.7,100.2,81.5,100.5,81.4,100.8z M82.4,99.3l-7.8-2.8c0.1-0.3,0.2-0.6,0.3-0.9l7.9,2.9C82.7,98.7,82.5,99,82.4,99.3L82.4,99.3z
		 M84.5,97.6l-0.1,0h0c-0.1,0-0.1,0-0.2,0h0c-0.1,0-0.2,0-0.3,0c-0.1,0-0.1,0-0.2,0.1c-0.1,0-0.2,0.1-0.2,0.1l-8.2-3
		c0.1-0.3,0.2-0.6,0.3-0.9l10.9,4C85.7,97.9,85.1,97.8,84.5,97.6L84.5,97.6z M88.6,97.9l-12.9-4.7c0.1-0.3,0.1-0.6,0.2-0.9l14.4,5.3
		C89.7,97.7,89.2,97.8,88.6,97.9L88.6,97.9z M76.4,86.9l9.9,3.6c0.1,0.4,0.2,0.7,0.3,1.1l-10.2-3.7c0-0.2,0-0.5,0-0.7V86.9
		L76.4,86.9z M78.4,39.9l7.4,2.7v1l-9.5-3.4v-0.2H78.4z M85.8,40.7v1l-5-1.8h2.7L85.8,40.7L85.8,40.7z M85.8,44.4v1l-9.5-3.4v-1
		L85.8,44.4z M85.8,46.2v1l-9.5-3.4v-1L85.8,46.2z M85.8,48.1v1l-9.5-3.4v-1L85.8,48.1L85.8,48.1z M85.8,49.9v1l-9.5-3.4v-1
		L85.8,49.9z M85.8,51.8v1l-9.5-3.4v-1L85.8,51.8L85.8,51.8z M85.8,53.6v1l-9.5-3.4v-1L85.8,53.6L85.8,53.6z M85.8,55.4v1L76.4,53
		v-1L85.8,55.4L85.8,55.4z M85.8,57.3v1l-9.5-3.4v-1C76.4,53.8,85.8,57.3,85.8,57.3z M85.8,59.1v1l-9.5-3.4v-1L85.8,59.1L85.8,59.1z
		 M85.8,60.9v1l-9.5-3.4v-1L85.8,60.9L85.8,60.9z M85.8,62.8v1l-9.5-3.4v-1L85.8,62.8L85.8,62.8z M85.8,64.6v1l-9.5-3.4v-1
		C76.4,61.2,85.8,64.6,85.8,64.6z M85.8,66.5v1L76.4,64v-1L85.8,66.5L85.8,66.5z M85.8,68.3v1l-9.5-3.4v-1L85.8,68.3L85.8,68.3z
		 M85.8,70.1l0,1l-9.5-3.4v-1L85.8,70.1L85.8,70.1z M85.8,72v1l-9.5-3.4v-1L85.8,72L85.8,72z M85.8,73.8v1l-9.5-3.4v-1L85.8,73.8
		L85.8,73.8z M85.8,75.6v1l-9.5-3.4v-1L85.8,75.6L85.8,75.6z M85.8,77.5v1L76.4,75v-1L85.8,77.5L85.8,77.5z M85.8,79.3v1l-9.5-3.4
		v-1L85.8,79.3L85.8,79.3z M85.8,81.2v1l-9.5-3.4v-1L85.8,81.2L85.8,81.2z M85.8,83v1l-9.5-3.4v-1L85.8,83L85.8,83z M85.8,84.8v1
		l-9.5-3.4v-1L85.8,84.8L85.8,84.8z M85.8,86.7v0.7c0,0.1,0,0.2,0,0.3l-9.5-3.5v-1L85.8,86.7L85.8,86.7z M85.9,88.6
		c0,0.3,0.1,0.7,0.2,1l-9.7-3.5v-1L85.9,88.6z M87,92.6c0.2,0.4,0.4,0.8,0.6,1.2l-11.4-4.1c0-0.3,0.1-0.6,0.1-0.9L87,92.6L87,92.6z
		 M88.3,94.9c0.3,0.5,0.7,0.9,1.1,1.4L76,91.4c0.1-0.3,0.1-0.6,0.1-0.9L88.3,94.9L88.3,94.9z M49.3,40.6v1l-4.7-1.7h2.7L49.3,40.6
		L49.3,40.6z M49.3,42.4v1L39.9,40v-0.1h2.4L49.3,42.4L49.3,42.4z M49.3,44.3v1l-9.5-3.4v-1C39.9,40.8,49.3,44.3,49.3,44.3z
		 M49.3,46.1v1l-9.5-3.4v-1L49.3,46.1L49.3,46.1z M49.3,47.9v1l-9.5-3.4v-1L49.3,47.9L49.3,47.9z M49.3,49.8v1l-9.5-3.4v-1
		C39.9,46.4,49.3,49.8,49.3,49.8z M49.3,51.6v1l-9.5-3.4v-1L49.3,51.6L49.3,51.6z M49.3,53.5v1L39.9,51v-1L49.3,53.5L49.3,53.5z
		 M49.3,55.3v1l-9.5-3.4v-1C39.9,51.9,49.3,55.3,49.3,55.3z M49.3,57.1v1l-9.5-3.4v-1L49.3,57.1L49.3,57.1z M49.3,59v1l-9.5-3.4v-1
		L49.3,59L49.3,59z M49.3,60.8v1l-9.5-3.4v-1L49.3,60.8L49.3,60.8z M49.3,62.7v1l-9.5-3.4v-1L49.3,62.7L49.3,62.7z M49.3,64.5v1
		L39.9,62v-1L49.3,64.5L49.3,64.5z M49.3,66.3v1l-9.5-3.4v-1L49.3,66.3L49.3,66.3z M49.3,68.2v1l-9.5-3.4v-1L49.3,68.2L49.3,68.2z
		 M49.3,70v1l-9.5-3.4v-1L49.3,70z M49.3,71.9v1l-9.5-3.4v-1L49.3,71.9L49.3,71.9z M49.3,73.7v1l-9.5-3.4v-1L49.3,73.7L49.3,73.7z
		 M49.3,75.5v1l-9.5-3.4v-1L49.3,75.5L49.3,75.5z M49.3,77.4v1l-9.5-3.4v-1L49.3,77.4L49.3,77.4z M49.3,79.2v1l-9.5-3.4v-1
		L49.3,79.2L49.3,79.2z M49.3,81v1l-9.5-3.4v-1L49.3,81L49.3,81z M49.3,82.9v1l-9.5-3.4v-1L49.3,82.9z M49.3,84.7v1l-9.5-3.4v-1
		L49.3,84.7L49.3,84.7z M49.3,86.6v0.8c0,0.1,0,0.1,0,0.2l-9.5-3.4v-1L49.3,86.6L49.3,86.6z M49.4,88.4c0,0.4,0.1,0.7,0.1,1
		l-9.7-3.5v-1L49.4,88.4L49.4,88.4z M49.7,90.4c0.1,0.4,0.2,0.7,0.3,1.1l-10.1-3.7c0-0.2,0-0.4,0-0.6v-0.4L49.7,90.4L49.7,90.4z
		 M50.4,92.5c0.2,0.4,0.4,0.8,0.6,1.2l-10.8-3.9c-0.1-0.4-0.1-0.7-0.2-1C40,88.7,50.4,92.5,50.4,92.5z M51.7,94.8
		c0.3,0.5,0.7,0.9,1.1,1.4L41,91.8c-0.2-0.4-0.3-0.8-0.5-1.1L51.7,94.8L51.7,94.8z M44,95.7l6.3,2.3C47.9,97.9,45.8,97,44,95.7
		L44,95.7z M52.4,97.8l-9.8-3.6c-0.4-0.4-0.7-0.9-1-1.3L54,97.4C53.4,97.6,52.9,97.7,52.4,97.8L52.4,97.8z M50.7,110.1
		c-12.7,0-23-10.3-23-23V39.9h9.5v47.3c0,7.5,6.1,13.5,13.5,13.5c2.4,0,4.7-0.6,6.8-1.8l1.1-0.7c3.5-2.5,5.6-6.5,5.7-10.8V39.9h9.5
		v47.3c0,10.5-7.1,19.6-17.2,22.2C54.6,109.9,52.6,110.1,50.7,110.1L50.7,110.1z M62.2,110.1c0.3-0.1,0.6-0.3,0.9-0.5l1.2,0.4
		c-0.5,0-0.9,0.1-1.4,0.1L62.2,110.1L62.2,110.1z M87.2,110.1c-3.2,0-6.5-0.7-9.5-2c2.8-2,5.3-4.6,7.1-7.6c0.8,0.1,1.6,0.2,2.4,0.2
		c2.4,0,4.7-0.6,6.8-1.8l1.1-0.7c3.5-2.5,5.6-6.5,5.7-10.8V39.9h9.5v47.3c0,10.5-7.1,19.6-17.2,22.2C91,109.9,89.1,110.1,87.2,110.1
		L87.2,110.1z M99.3,110.1H99l-0.2-0.1c0.4-0.2,0.7-0.4,1.1-0.6l1.5,0.6C100.7,110.1,100,110.1,99.3,110.1L99.3,110.1z M103.1,109.8
		l-2.4-0.9c0.3-0.2,0.7-0.4,1-0.6l3.1,1.1C104.3,109.6,103.7,109.7,103.1,109.8L103.1,109.8z M106.2,109.1l-3.7-1.3
		c0.3-0.2,0.6-0.4,0.9-0.7l4.2,1.5C107.1,108.8,106.6,108.9,106.2,109.1L106.2,109.1z M108.7,108.1l-4.6-1.7
		c0.3-0.2,0.5-0.5,0.8-0.7l5,1.8C109.4,107.8,109,108,108.7,108.1L108.7,108.1z M110.8,107.1l-5.3-1.9c0.2-0.2,0.5-0.5,0.7-0.7
		l5.6,2C111.4,106.7,111.1,106.9,110.8,107.1L110.8,107.1z M112.6,105.9l-5.9-2.1c0.2-0.3,0.4-0.5,0.6-0.8l6.1,2.2
		C113.2,105.5,112.9,105.7,112.6,105.9L112.6,105.9z M114.2,104.6l-6.3-2.3c0.2-0.2,0.4-0.5,0.5-0.8l6.6,2.4
		C114.7,104.2,114.5,104.4,114.2,104.6L114.2,104.6z M115.6,103.3l-6.8-2.5c0.2-0.3,0.3-0.5,0.5-0.8l7,2.5
		C116.1,102.8,115.9,103.1,115.6,103.3z M116.9,101.9l-7.1-2.6c0.1-0.3,0.3-0.6,0.4-0.8l7.3,2.7
		C117.3,101.4,117.1,101.7,116.9,101.9z M118,100.5l-7.5-2.7c0.1-0.3,0.2-0.6,0.4-0.9l7.6,2.8C118.4,100,118.2,100.2,118,100.5
		L118,100.5z M119,99l-7.8-2.8c0.1-0.3,0.2-0.6,0.3-0.9l8,2.9C119.3,98.5,119.1,98.8,119,99L119,99z M119.8,97.5l-8.1-3
		c0.1-0.3,0.2-0.6,0.2-0.9l8.2,3C120.1,96.9,120,97.2,119.8,97.5L119.8,97.5z M120.5,95.9l-8.4-3.1c0.1-0.3,0.1-0.6,0.2-0.9l8.5,3.1
		C120.8,95.4,120.7,95.6,120.5,95.9L120.5,95.9z M121.1,94.3l-8.6-3.1c0-0.3,0.1-0.6,0.1-0.9l8.8,3.2
		C121.3,93.7,121.2,94,121.1,94.3L121.1,94.3z M121.6,92.6l-8.9-3.2c0-0.3,0-0.6,0.1-0.9l9,3.3C121.8,92,121.7,92.3,121.6,92.6
		L121.6,92.6z M122,90.9l-9.2-3.3c0-0.1,0-0.3,0-0.4v-0.5l9.3,3.4C122.1,90.3,122,90.6,122,90.9L122,90.9z M122.2,89.2l-9.4-3.4v-1
		l9.4,3.4C122.2,88.5,122.2,88.9,122.2,89.2L122.2,89.2z M122.3,87.2c0,0.1,0,0.1,0,0.2l-9.5-3.4v-1l9.5,3.4V87.2L122.3,87.2z
		 M122.3,85.5l-9.5-3.4v-1l9.5,3.4V85.5L122.3,85.5z M122.3,83.7l-9.5-3.4v-1l9.5,3.4V83.7L122.3,83.7z M122.3,81.8l-9.5-3.4v-1
		l9.5,3.4V81.8L122.3,81.8z M122.3,80l-9.5-3.4v-1l9.5,3.4V80L122.3,80z M122.3,78.2l-9.5-3.4v-1l9.5,3.4V78.2L122.3,78.2z
		 M122.3,76.3l-9.5-3.4v-1l9.5,3.4V76.3L122.3,76.3z M122.3,74.5l-9.5-3.4v-1l9.5,3.4V74.5L122.3,74.5z M122.3,72.7l-9.5-3.4v-1
		l9.5,3.4V72.7L122.3,72.7z M122.3,70.8l-9.5-3.4v-1l9.5,3.4V70.8L122.3,70.8z M122.3,69l-9.5-3.4v-1l9.5,3.4V69z M122.3,67.1
		l-9.5-3.4v-1l9.5,3.4C122.3,66.2,122.3,67.1,122.3,67.1z M122.3,65.3l-9.5-3.4v-1l9.5,3.4V65.3L122.3,65.3z M122.3,63.5l-9.5-3.4
		v-1l9.5,3.4V63.5z M122.3,61.6l-9.5-3.4v-1l9.5,3.4V61.6L122.3,61.6z M122.3,59.8l-9.5-3.4v-1l9.5,3.4V59.8L122.3,59.8z
		 M122.3,57.9l-9.5-3.5v-1l9.5,3.4V57.9L122.3,57.9z M122.3,56.1l-9.5-3.4v-1l9.5,3.4C122.3,55.1,122.3,56.1,122.3,56.1z
		 M122.3,54.3l-9.5-3.4v-1l9.5,3.4V54.3z M122.3,52.4l-9.5-3.4v-1l9.5,3.4V52.4L122.3,52.4z M122.3,50.6l-9.5-3.4v-1l9.5,3.4V50.6
		L122.3,50.6z M122.3,48.7l-9.5-3.4v-1l9.5,3.4C122.3,47.8,122.3,48.7,122.3,48.7z M122.3,46.9l-9.5-3.4v-1l9.5,3.4V46.9L122.3,46.9
		z M122.3,45.1l-9.5-3.4v-1l9.5,3.4V45.1z M122.3,43.2l-9.2-3.4h2.7l6.6,2.4L122.3,43.2L122.3,43.2z M122.3,41.4l-4.2-1.5h2.7
		l1.5,0.6L122.3,41.4L122.3,41.4z"/>
</g>
</svg>
