<?xml version="1.0" encoding="utf-8"?>
<!-- Generator: Adobe Illustrator 19.0.0, SVG Export Plug-In . SVG Version: 6.00 Build 0)  -->
<svg version="1.1" id="Capa_1" xmlns="http://www.w3.org/2000/svg" xmlns:xlink="http://www.w3.org/1999/xlink" x="0px" y="0px"
	 viewBox="0 0 130 215" style="enable-background:new 0 0 130 215;" xml:space="preserve">
<style type="text/css">
	.st0{fill:#EAC6B9;}
	.st1{fill:#F4C2B6;}
	.st2{opacity:0.2;fill:#917A6C;enable-background:new    ;}
	.st3{fill:#DE9E8E;}
	.st4{opacity:0.1;fill:#FFFFFF;enable-background:new    ;}
	.st5{opacity:0.2;fill:url(#XMLID_4_);enable-background:new    ;}
	.st6{opacity:0.2;fill:url(#XMLID_5_);enable-background:new    ;}
	.st7{fill:#C5A89D;}
	.st8{fill:#D78578;}
	.st9{opacity:0.25;fill:#D78578;enable-background:new    ;}
	.st10{fill:#442A19;}
	.st11{fill:#351F17;}
	.st12{fill:url(#XMLID_6_);}
	.st13{fill:#E3B0A6;}
	.st14{fill:#3D3D3B;}
	.st15{fill:#202021;}
</style>
<g id="XMLID_2_">
	<path id="XMLID_61_" class="st0" d="M90.1,173.2v-34.8H39.8V174c0,0.1,0,0.3,0,0.4c0,6.4,11.3,11.6,25.2,11.6s25.2-5.2,25.2-11.6
		C90.2,174,90.2,173.6,90.1,173.2z"/>
	
		<ellipse id="XMLID_60_" transform="matrix(0.236 0.9718 -0.9718 0.236 108.579 51.3366)" class="st1" cx="21.6" cy="94.7" rx="17.5" ry="5.5"/>
	<path id="XMLID_59_" class="st2" d="M39.8,138.4v16.1c6,10,15.1,16.4,25.3,16.4c10,0,19-6.2,25-15.8v-16.7H39.8z"/>
	
		<ellipse id="XMLID_58_" transform="matrix(0.2362 -0.9717 0.9717 0.2362 -9.1325 177.5911)" class="st3" cx="108.4" cy="94.6" rx="17.5" ry="5.5"/>
	<path id="XMLID_57_" class="st0" d="M86.2,20.5c-11.3-5.3-20-1-20-1h-0.6c0,0-0.2-0.1-0.6-0.3c-0.4,0.2-0.6,0.3-0.6,0.3h-0.6
		c0,0-8.7-4.3-20,1C15.3,34,21.2,89.2,29.8,128.2s27,35.3,27,35.3H65h8.2c0,0,18.3,3.7,27-35.3S114.7,34,86.2,20.5z"/>
	<path id="XMLID_56_" class="st4" d="M29,34.4l9.7,35.8c0,0-5,1-5.5,5.7c-0.8,7.3,3.8,29.8,3.8,29.8l4.3,33.1l23.7-0.3V12.2L29,34.4
		z"/>
	<path id="XMLID_55_" class="st4" d="M101,34.4l-9.7,35.8c0,0,5,1,5.5,5.7c0.8,7.3-3.8,29.8-3.8,29.8l-4.3,33.1L65,138.5V12.2
		L101,34.4z"/>
	
		<radialGradient id="XMLID_4_" cx="-172.6827" cy="108.9401" r="15.3462" gradientTransform="matrix(0.9231 0 0 -0.9231 201.2034 198.3626)" gradientUnits="userSpaceOnUse">
		<stop  offset="0" style="stop-color:#E30D18"/>
		<stop  offset="9.625912e-002" style="stop-color:#E43627"/>
		<stop  offset="0.3272" style="stop-color:#E87054"/>
		<stop  offset="0.5412" style="stop-color:#E9977E"/>
		<stop  offset="0.7314" style="stop-color:#EAB29E"/>
		<stop  offset="0.8908" style="stop-color:#EAC1B2"/>
		<stop  offset="1" style="stop-color:#EAC6B9"/>
	</radialGradient>
	<circle id="XMLID_53_" class="st5" cx="41.8" cy="97.8" r="14.2"/>
	
		<radialGradient id="XMLID_5_" cx="-122.4173" cy="108.9401" r="15.3829" gradientTransform="matrix(0.9231 0 0 -0.9231 201.2034 198.3626)" gradientUnits="userSpaceOnUse">
		<stop  offset="0" style="stop-color:#E30D18"/>
		<stop  offset="9.625912e-002" style="stop-color:#E43627"/>
		<stop  offset="0.3272" style="stop-color:#E87054"/>
		<stop  offset="0.5412" style="stop-color:#E9977E"/>
		<stop  offset="0.7314" style="stop-color:#EAB29E"/>
		<stop  offset="0.8908" style="stop-color:#EAC1B2"/>
		<stop  offset="1" style="stop-color:#EAC6B9"/>
	</radialGradient>
	<circle id="XMLID_52_" class="st6" cx="88.2" cy="97.8" r="14.2"/>
	<path id="XMLID_49_" class="st7" d="M101.3,119.1c-8.1,25.9-14.8,15.2-14.8,15.2l1.8-20.2c0,0-11.5-6.3-14.9-9
		c-1.1-0.9-4.9,0.8-5.8,0.8c-0.8,0.1-1.6,0.2-2.4,0.2l0,0l0,0c0,0,0,0-0.1,0c0,0,0,0-0.1,0l0,0l0,0c-0.9,0-1.7-0.1-2.4-0.2
		c-0.9,0-4.7-1.6-5.8-0.8c-3.4,2.7-14.9,9-14.9,9l1.8,20.2c0,0-6.7,10.7-14.8-15.2c-0.4-1.2-0.6-0.6-0.5,1.1c0.5,2.7,1.1,5.4,1.7,8
		c4.1,18.4,10.3,27.3,15.8,31.6c2,1.5,4.1,2.6,6.5,3.4c2.8,0.8,4.7,0.4,4.7,0.4h7.4c0.2,0,0.4-0.1,0.6-0.1h0.1c0,0,0,0,0.1,0
		c0.2,0.1,0.5,0.1,0.7,0.1h7.4c0,0,1.2,0.2,3.2-0.1c3.1-0.7,5.9-2.1,8.3-3.9c5.4-4.4,11.5-13.3,15.5-31.4c0.6-2.6,1.1-5.3,1.7-8
		C101.9,118.5,101.7,118,101.3,119.1z M84.1,126c-6.4,16.7-11.1,10-13.2,5c2.3-1.4,4.9-2.3,5.4-5.3c-2.8,0.7-6.8,1.2-11.3,1.2h-0.1
		h-0.1c-4.5,0-8.5-0.5-11.3-1.2c0.5,3,3.2,3.9,5.4,5.3c-2.1,5-6.8,11.7-13.2-5.1c-1.8-4.8,0-7.8,0-7.8L57,112h0.1
		c1.2,1.1,4.2,1.9,7.8,1.9c3.6,0,6.6-0.8,7.8-1.9c0.1,0,0.2-0.1,0.2-0.1l11.1,6.2C84.1,118.1,85.9,121.2,84.1,126z"/>
	<path id="XMLID_48_" class="st8" d="M50.4,120.5c0-0.5,0.3-0.9,0.8-0.9s0.9,0.3,0.9,0.8c0,0.1,0,0.2,0,0.3c0.4-0.1,0.8-0.3,1.3-0.4
		c1.3-0.3,3.1-0.4,4.8-0.2c1.7,0.2,3.4,0.7,4.6,1.3c0.6,0.3,1.1,0.6,1.5,0.9c0.3,0.2,0.5,0.3,0.5,0.4c0.1,0,0.3-0.2,0.5-0.4
		c0.4-0.2,0.9-0.5,1.5-0.8c1.3-0.5,3-0.9,4.7-1s3.5,0.1,4.8,0.5c0.6,0.2,1.1,0.4,1.5,0.6c0-0.1-0.1-0.1-0.1-0.2
		c0-0.5,0.3-0.9,0.8-0.9s0.9,0.3,0.9,0.8s-0.3,0.9-0.8,0.9h-0.1l0,0c0,0-0.9,0.1-2.2,0.2c-1.3,0.1-3,0.2-4.7,0.3
		c-1.7,0.1-3.5,0.1-4.8,0.2c-1.2,0-2,0-2.1,0.1l0,0l0,0l0,0l0,0c-0.1,0-0.9-0.1-2.1-0.2c-1.3-0.1-3-0.3-4.7-0.5s-3.4-0.5-4.7-0.6
		c-1.3-0.2-2.1-0.3-2.1-0.3l0,0C50.8,121.2,50.4,120.9,50.4,120.5z"/>
	<path id="XMLID_47_" class="st9" d="M73.2,163.5c0,0,18.3,3.7,27-35.3s14.5-94.2-14-107.7c-11.3-5.3-20-1-20-1h-0.6
		c0,0-0.2-0.1-0.6-0.3v144.3H73.2z"/>
	<g id="XMLID_44_">
		<path id="XMLID_12_" class="st10" d="M34.2,81.3c0,0,1.1-0.8,3-1.8c0.9-0.5,2-1,3.2-1.4c1.2-0.5,2.5-0.9,3.9-1.3
			c0.7-0.2,1.4-0.3,2-0.4c0.7-0.1,1.3-0.2,2-0.3c0.6-0.1,1.3-0.1,1.9-0.1c0.6,0,1.2,0,1.7,0s1,0.1,1.4,0.1s0.8,0.1,1.1,0.2
			c0.6,0.1,0.9,0.2,0.9,0.2s-0.3,0-0.9,0.1c-0.3,0-0.7,0-1.1,0.1c-0.4,0-0.9,0.1-1.4,0.1c-0.5,0.1-1,0.1-1.6,0.2s-1.2,0.2-1.8,0.3
			c-0.6,0.1-1.2,0.3-1.9,0.4c-0.6,0.2-1.3,0.3-1.9,0.5c-0.6,0.2-1.3,0.3-1.9,0.5c-0.6,0.2-1.3,0.3-1.9,0.5c-1.2,0.4-2.3,0.7-3.3,1
			C35.5,80.9,34.2,81.3,34.2,81.3z"/>
	</g>
	<path id="XMLID_43_" class="st10" d="M49,78.4c0.3,1.2-1.3,2.7-3.7,3.4c-2.3,0.7-4.5,0.2-4.8-1s1.3-2.7,3.7-3.4
		C46.5,76.7,48.7,77.2,49,78.4z"/>
	<g id="XMLID_40_">
		<path id="XMLID_10_" class="st10" d="M95.8,81.3c0,0-1.3-0.4-3.3-1c-1-0.3-2.1-0.6-3.3-1c-0.6-0.2-1.2-0.3-1.9-0.5
			c-0.6-0.2-1.3-0.3-1.9-0.5c-0.7-0.2-1.3-0.3-1.9-0.5c-0.6-0.1-1.3-0.3-1.9-0.4s-1.2-0.2-1.8-0.3c-0.6-0.1-1.1-0.2-1.6-0.2
			s-1-0.1-1.4-0.1s-0.8,0-1.1-0.1c-0.6,0-0.9-0.1-0.9-0.1s0.3-0.1,0.9-0.2c0.3-0.1,0.7-0.2,1.1-0.2s0.9-0.1,1.4-0.1s1.1,0,1.7,0
			s1.2,0.1,1.9,0.1c0.6,0.1,1.3,0.2,2,0.3c0.7,0.1,1.3,0.3,2,0.4c1.3,0.4,2.7,0.8,3.9,1.3c1.2,0.5,2.3,1,3.2,1.4
			C94.7,80.5,95.8,81.3,95.8,81.3z"/>
	</g>
	<path id="XMLID_39_" class="st10" d="M81.1,78.4c-0.3,1.2,1.3,2.7,3.7,3.4c2.3,0.7,4.5,0.2,4.8-1s-1.3-2.7-3.7-3.4
		C83.5,76.7,81.3,77.2,81.1,78.4z"/>
	<path id="XMLID_38_" class="st11" d="M33.1,67.9c3.1-0.2,6.1-0.2,8.8,0.1c0.1,0,0.2,0,0.2,0c5.5,0,12.4,0.4,15.8,1.5
		c-1-1.7-6.1-8.4-24.5-3.3C32.9,66.3,32.8,67.9,33.1,67.9z"/>
	<path id="XMLID_37_" class="st11" d="M87.9,68c0.1,0,0.1,0,0.2,0c2.7-0.2,5.7-0.3,8.8-0.1c0.3,0,0.2-1.6-0.3-1.7
		c-18.4-5.1-23.5,1.5-24.5,3.3C75.5,68.4,82.4,68,87.9,68z"/>
	
		<linearGradient id="XMLID_6_" gradientUnits="userSpaceOnUse" x1="64.9778" y1="137.6601" x2="64.9778" y2="106.4601" gradientTransform="matrix(1 0 0 -1 0 215)">
		<stop  offset="0" style="stop-color:#E2B7B1"/>
		<stop  offset="1" style="stop-color:#D78578"/>
	</linearGradient>
	<path id="XMLID_36_" class="st12" d="M71.4,93.5c0,0-4.4-14.1-4.6-15.2c-0.1-0.6-0.8-0.8-1.4-0.9l0,0h-0.1h-0.1c-0.1,0-0.1,0-0.2,0
		s-0.1,0-0.2,0h-0.1c-0.1,0-0.1,0-0.1,0l0,0c-0.6,0.1-1.3,0.2-1.4,0.9c-0.2,1.1-4.6,15.2-4.6,15.2s-9.4,9.8-0.2,11.1
		c1.8,0.5,2.3,1.3,2.8,2c0.4,1.2,1.6,2,2.9,2h1.8c1.3,0,2.4-0.8,2.9-2c0.5-0.7,1-1.4,2.8-2C80.7,103.2,71.4,93.5,71.4,93.5z"/>
	<g id="XMLID_33_">
		<path id="XMLID_35_" class="st11" d="M69.4,105.7c0,0,1.1-4,3.1-3c1.5,0.7,0.4,1.8-0.2,2c-0.5,0.2-1.1,0-1.1,0L69.4,105.7z"/>
		<path id="XMLID_34_" class="st11" d="M60.6,105.7c0,0-1.1-4-3.1-3c-1.5,0.7-0.4,1.8,0.2,2c0.5,0.2,1.1,0,1.1,0L60.6,105.7z"/>
	</g>
	<path id="XMLID_32_" class="st13" d="M68,103.7c0,1.4-1.3,2.6-3,2.6l0,0c-1.6,0-3-1.1-3-2.6V102c0-1.4,1.3-2.6,3-2.6l0,0
		c1.6,0,3,1.1,3,2.6V103.7z"/>
	<path id="XMLID_28_" class="st14" d="M106.8,71.2c0,0-3.4,0.3-6.5-1.3c-3.3-1.6-23.1-1.6-28.4,0.5c-0.5,0.2-1,0.4-1.5,0.5
		c-1.5,0.6-3.3,0.9-5.4,0.9c-2,0-3.9-0.3-5.4-0.9c-0.5-0.1-1-0.3-1.5-0.5c-5.3-2.1-25.1-2-28.4-0.4c-3.1,1.5-6.5,1.3-6.5,1.3
		s0,3.3,0,5c5.3,0.1,4.4,11.8,6.3,13.5c1.8,1.8,23.9,2.6,27.3-0.8s4.3-13.8,7.7-14.3c0.5-0.1,0.5-0.1,1.1,0
		c3.5,0.5,4.4,10.9,7.8,14.3s25.4,2.5,27.3,0.8c1.8-1.8,1-13.4,6.3-13.5C106.8,74.5,106.8,71.2,106.8,71.2z M59.1,76.3
		c0,0-2.3,10.9-5,12.4S38.9,91,33.8,89.1c-5.2-1.9-4.6-13.4-4.6-15.3s3.4-2.8,3.4-2.8s21.5-1,24.1,0.7
		C59.2,73.5,59.1,76.3,59.1,76.3z M96.3,89.1C91.1,91,78.6,90.2,76,88.7c-2.7-1.5-5-12.4-5-12.4s-0.2-2.8,2.4-4.5s24.1-0.7,24.1-0.7
		s3.4,0.9,3.4,2.8S101.5,87.2,96.3,89.1z"/>
	<polygon id="XMLID_25_" class="st15" points="27.3,199.3 32.4,192.9 21,195.4 26.6,179.7 1.2,189.6 1.2,215 47.5,215 	"/>
	<polygon id="XMLID_22_" class="st15" points="103.5,179.7 109.2,195.4 97.7,192.9 102.8,199.3 82.6,215 128.8,215 128.8,189.6 	"/>
	<path id="XMLID_21_" class="st11" d="M58,1.1C56.6,2,34.9,13.5,34.9,13.5l4.4,6.2L58,1.1z"/>
	<polygon id="XMLID_18_" class="st15" points="34.6,161.7 23.1,193.4 35.9,190.7 29.3,199.1 49.9,215 67.6,215 	"/>
	<polygon id="XMLID_3_" class="st15" points="107,193.4 95.5,161.6 65.2,207.9 69.8,215 80.2,215 100.8,199.1 94.2,190.7 	"/>
</g>
<path id="XMLID_54_" class="st11" d="M109.1,41.3c-3-15.1-11.5-23.5-11.5-23.5S87.8,2.9,73.4,5.6c-14.3,2.7-7.2-2.3-7.2-2.3
	S53.8,5.9,51.8,6.8C49.8,7.6,34.9,12,29,17.5c-7.5,7-10.1,21.6-10.7,24S17.8,54.6,18,56.3s6.2,36,6.2,36l3.2-0.8
	c0,0,0.2-29.8,5.2-34.5c-0.7-4.6-10-28,26.4-30.7c2.3,0.7,4.4,1.9,5.8,3.8c0.1-0.1,0.1-0.2,0.2-0.3c0.1,0.1,0.1,0.2,0.2,0.3
	c1.5-2.1,4-3.3,6.6-4C110.6,28,99.5,57,99.5,57s9,19,6.2,35.5c0.9,0.1,1.2,0.1,1.2,0.1s3.6-36.6,3.6-38.6
	C110.4,52,109.6,43.7,109.1,41.3z"/>
</svg>
