<svg xmlns="http://www.w3.org/2000/svg" id="Capa_1" viewBox="0 0 110 182">
  <style>
    .st0{fill:#BE1622;} .st1{fill:#EAC6B9;} .st2{opacity:0.2;fill:#90796B;enable-background:new ;} .st3{opacity:0.6;} .st4{opacity:0.2;fill:url(#SVGID_1_);enable-background:new ;} .st5{opacity:0.2;fill:url(#SVGID_2_);enable-background:new ;} .st6{opacity:0.2;enable-background:new ;} .st7{fill:url(#SVGID_3_);} .st8{opacity:0.7;fill:#BB7D74;enable-background:new ;} .st9{opacity:0.3;} .st10{fill:#90796B;} .st11{opacity:0.94;fill:#432918;enable-background:new ;} .st12{opacity:0.2;fill:#FFFFFF;enable-background:new ;} .st13{opacity:0.7;enable-background:new ;}
  </style>
  <g id="Layer_2">
    <circle cx="83.7" cy="151.2" r="13.2" class="st0"/>
    <ellipse cx="82.7" cy="153.7" transform="rotate(-86.21 82.65 153.71)" class="st0" rx="13.2" ry="13.2"/>
    <circle cx="75.7" cy="150.2" r="13.2" class="st0"/>
    <circle cx="34.3" cy="150.2" r="13.2" class="st0"/>
    <circle cx="40.6" cy="153.3" r="13.2" class="st0"/>
    <ellipse cx="27.3" cy="153.7" transform="rotate(-3.8 27.27 153.71)" class="st0" rx="13.2" ry="13.2"/>
    <circle cx="69.4" cy="153.3" r="13.2" class="st0"/>
    <path d="M105.2 182l-9.8-11.9-23.7-10.4H43.4l-24.1 10.4L9.9 182h95.3z"/>
  </g>
  <circle cx="26.3" cy="45.1" r="13.2" class="st0"/>
  <circle cx="44.7" cy="39" r="13.2" class="st0"/>
  <circle cx="21" cy="137.6" r="13.2" class="st0"/>
  <circle cx="26.3" cy="151.2" r="13.2" class="st0"/>
  <circle cx="27.3" cy="25.7" r="13.2" class="st0"/>
  <circle cx="22.3" cy="37.9" r="13.2" class="st0"/>
  <circle cx="44.7" cy="31.9" r="13.2" class="st0"/>
  <circle cx="83.7" cy="45.1" r="13.2" class="st0"/>
  <circle cx="65.3" cy="39" r="13.2" class="st0"/>
  <circle cx="89" cy="137.6" r="13.2" class="st0"/>
  <circle cx="92.9" cy="150.2" r="13.2" class="st0"/>
  <ellipse cx="98.9" cy="137" class="st0" rx="11.1" ry="13.2"/>
  <circle cx="82.7" cy="25.7" r="13.2" class="st0"/>
  <circle cx="72.1" cy="38.7" r="20" class="st0"/>
  <path d="M71.4 157.8v-33.5H43.5v34.6c0 6.2 6.3 11.2 14 11.2s14-5 14-11.2c0-.3 0-.7-.1-1.1z" class="st1"/>
  <path d="M43.6 142.9v9.3c3.3 5.8 8.4 9.4 14.1 9.4s10.6-3.5 13.9-9.1v-9.6h-28z" class="st2"/>
  <g class="st3">
    <path d="M44.7 152.2c.1-.1.1-.1.2-.1h.3c.2 0 .4 0 .5-.1s.3-.1.4 0c.2.1.3.1.5 0s.2 0 .2-.1c.2 0 .4 0 .6-.1.2 0 .2 0 .2.1s0 .2.1.3h.1v-.3c0-.1 0-.2.2-.2s.5-.1.7 0h.1v.2c.1-.3.5-.3.7 0l.2.1h.1c.3 0 .4.1.4.4v.1l.2-.1.2.4c.1-.1.3-.2.4-.2.2 0 .4 0 .5.1l-.2.2.2-.1c.1-.1.2-.1.2.1 0 0 0 .1.1.1l.1.1c.3.2.3.3 0 .5l-.1.1c.2 0 .3-.3.5-.1s.3.2.2.4c.1.1.2.2.2.3.2.3.4.5.5.8.1.2.2.3.2.5.1.2.1.3.2.5s.2.4.3.7v.3l-.3-.1s-.1 0-.1-.1c-.1-.2-.4-.3-.6-.4l-.2-.1.1-.1c-.2 0-.4.1-.5 0s-.4-.1-.3-.4c-.2.1-.5 0-.6-.2s.2-.3.3-.5c-.1 0-.2.1-.3.2-.2.2-.5.2-.7 0l.2-.5c-.2.2-.4.6-.9.3l.3-.6-.2.3c0 .1-.1.2-.1.2s-.1.1-.2.1c0-.1-.1-.1-.1-.2v-.1c-.1.1-.2.2-.3.2h-.2v-.2c.1-.2.1-.3.2-.5s0-.1.1-.2c0 0-.1.1-.1.2l-.3.5c-.1.2-.2.2-.3 0-.1-.1-.2-.2-.3-.4 0-.1-.1-.2-.1-.3s.1-.2.1-.3l-.3.3-.1-.3-.3-.2c-.1-.1-.2-.1-.4-.2-.3-.1-.3-.1-.2-.3v-.2c0 .1-.1.2-.1.3s-.1.2-.2.1c-.1 0-.2-.1-.1-.2v-.2c-.3.5-.4.5-.5.2-.2.1-.2 0-.2-.2s0-.2-.1-.3l-.1.2s0 .1-.1.1c-.3 0-.4-.1-.5-.3-.1 0-.2-.1-.3-.1s-.2 0-.4-.1c.3-.1.2-.1.1-.3z" class="st0"/>
    <path d="M51 158.1v-.3c-.2.4-.6.4-.9.5v-.2c-.1.1-.2.2-.3.2-.2.1-.2.1-.3-.1l-.3.1c-.2 0-.2 0-.2-.2.1-.2.1-.2.1-.3-.2.2-.2.5-.5.4-.1 0-.3-.1-.3-.3-.5 0-.6-.1-.5-.5-.2.2-.3.3-.5.2s0-.2 0-.4l-.1.1c-.1 0-.2.1-.2 0-.1-.1-.1-.2-.1-.2 0-.1.1-.2.1-.3l-.1.2c-.1.2-.2.2-.3 0-.2-.3-.6-.5-.6-1 0-.1 0-.1-.1-.2-.2-.1-.2-.4-.1-.5-.2.1-.2 0-.2-.2 0-.1 0-.3-.1-.3s-.1-.1-.1-.2-.1-.4-.2-.6v-.2c-.2-.3-.3-.7-.5-1v-.1h.2s.3.3.4.5l.1.1c.3.1.3.2.2.5v.1c.2-.2.5-.1.7 0s.3.1.5.1v.1l-.2.1h.6c.1 0 .1.1.2.2.2 0 .3 0 .4.2.1.1.2.1.3.2s.2.2 0 .3l-.3.3v.1c.1-.1.1-.1.2-.1.1-.1.2-.1.4-.1s.2.1.2.2h.3c.2 0 .2.1.2.3-.1.2-.1.2-.1.3v.2c.2-.2.2-.4.3-.6.3.1.3.1.3.5.1-.1 0-.3.2-.3.1 0 .3.1.4.2l.5.1c.1 0 .2 0 .2.1.1 0 .1.1.1.2l.1-.2c.1.1.3.1.4.2l.1.1c.2-.1.3-.1.5.1l.6.2c.1 0 .2 0 .2.1.1.1.3.2.4.1h.4c.1 0 .2.2 0 .2-.2.1-.5.2-.8.2 0 0-.1 0-.1-.1-.1.3-.4.2-.6.3-.1 0-.2 0-.2.1 0 0-.1 0-.1.1l-1 .3.1-.1zm-2.5-.2l.3-.6-.3.6zm1.6-1.7l-.1.5h.1v-.5zm-1.6 1.7l.3-.6-.3.6z" class="st0"/>
    <path d="M50.2 156.2v.5h-.1l.1-.5z" class="st0"/>
  </g>
  <path d="M77.4 61.5c-9.8-3.5-17.3-.7-17.3-.7h-.5l-.5-.2-.5.2h-.4s-7.5-2.9-17.3.7c-24.6 8.8-19.6 44.9-12.1 70.5s53.2 25.5 60.7 0C97 106.4 102 70.3 77.4 61.5z" class="st1"/>
  <path d="M29.8 62c4.1-3.2 7.4-.6 7.4-.6s-4.8 21.4-4.8 42.5c0 25.4 12.5 44.3 12.3 44.3-5.6 0-18.3-10.1-19.9-21.8-3.2-23.3-5.3-56.3 5-64.4z" class="st1"/>
  <radialGradient id="SVGID_1_" cx="238.046" cy="964.293" r="11.313" gradientTransform="matrix(.92 0 0 .92 -190 -778.16)" gradientUnits="userSpaceOnUse">
    <stop offset="0" stop-color="#E30613"/>
    <stop offset=".12" stop-color="#E4262F"/>
    <stop offset=".34" stop-color="#E65F60"/>
    <stop offset=".55" stop-color="#E88B86"/>
    <stop offset=".74" stop-color="#E9ABA2"/>
    <stop offset=".89" stop-color="#EABFB3"/>
    <stop offset="1" stop-color="#EAC6B9"/>
  </radialGradient>
  <circle cx="29.7" cy="109.9" r="10.4" class="st4"/>
  <radialGradient id="SVGID_2_" cx="298.698" cy="964.293" r="11.313" gradientTransform="matrix(.92 0 0 .92 -190 -778.16)" gradientUnits="userSpaceOnUse">
    <stop offset="0" stop-color="#E30613"/>
    <stop offset=".12" stop-color="#E4262F"/>
    <stop offset=".34" stop-color="#E65F60"/>
    <stop offset=".55" stop-color="#E88B86"/>
    <stop offset=".74" stop-color="#E9ABA2"/>
    <stop offset=".89" stop-color="#EABFB3"/>
    <stop offset="1" stop-color="#EAC6B9"/>
  </radialGradient>
  <circle cx="85.5" cy="109.9" r="10.4" class="st5"/>
  <g class="st6">
    <radialGradient id="SVGID_3_" cx="251.9" cy="903.399" r="11.313" gradientTransform="translate(0 -608.64)" gradientUnits="userSpaceOnUse">
      <stop offset="0" stop-color="#E30613"/>
      <stop offset=".12" stop-color="#E4262F"/>
      <stop offset=".34" stop-color="#E65F60"/>
      <stop offset=".55" stop-color="#E88B86"/>
      <stop offset=".74" stop-color="#E9ABA2"/>
      <stop offset=".89" stop-color="#EABFB3"/>
      <stop offset="1" stop-color="#EAC6B9"/>
    </radialGradient>
    <circle cx="85.5" cy="109.9" r="10.4" class="st7"/>
  </g>
  <circle cx="41.6" cy="51.3" r="13.2" class="st0"/>
  <circle cx="35.5" cy="58.4" r="13.2" class="st0"/>
  <circle cx="24.4" cy="61.2" r="13.2" class="st0"/>
  <circle cx="82.7" cy="58.4" r="13.2" class="st0"/>
  <circle cx="57.9" cy="54.6" r="13.2" class="st0"/>
  <circle cx="56.2" cy="21.2" r="13.2" class="st0"/>
  <circle cx="41.6" cy="24.7" r="13.2" class="st0"/>
  <circle cx="72.8" cy="25.8" r="13.2" class="st0"/>
  <path d="M67.1 129c-.1-.1-.2-.1-.3 0v.1c-.2.3-.5.5-.8.7-1.5-.6-2.8-1.4-4.1-2.3-.9-.6-2.2-.6-3.1 0-.3.2-.6.4-1 .4s-.7-.1-1-.4c-.9-.6-2.2-.6-3.1 0-1.3.9-2.7 1.7-4.1 2.3-.3-.2-.6-.4-.7-.7-.1-.1-.2-.2-.3-.1h-.1c-.1.1-.2.3-.1.5.4.7 1.1 1.1 1.9 1.1h.1c.9-.1 1.8-.2 2.7-.4 1.6-.4 3.1-.5 4.7-.4h.1c1.6-.1 3.2 0 4.7.4.9.2 1.8.3 2.7.4h.1c.8 0 1.5-.5 1.9-1.1-.1-.2-.1-.4-.2-.5zm-3.8 2.6c-.9.4-1.6 1-2.2 1.3-1.1.5-2.4.8-3.6.8-1.3 0-2.5-.3-3.6-.8-.6-.3-1.4-.9-2.2-1.3-1.1.6-1.7 1.4-1.7 2.2 0 1.9 3.4 4.8 7.6 4.8s7.6-2.9 7.6-4.8c-.2-.9-.8-1.7-1.9-2.2z" class="st8"/>
  <path d="M56.1 117.1c-1 .2-2 .1-2.9-.3-.5-.4-.3-1.7.6-1.6.8.2 1.6.5 2.2 1.1.3.2.3.6.1.8zm2.2 0c1 .2 2 .1 2.9-.3.5-.4.3-1.7-.6-1.6-.8.2-1.6.5-2.2 1.1-.4.2-.3.6-.1.8z" class="st9 st10"/>
  <path d="M41.3 88.4c-.6-.1-1.2-.2-1.8-.2l-1-.1c-.3 0-.6 0-1 .1-.6 0-1.3.1-1.9.2-.6.2-1.2.3-1.8.5s-1.2.4-1.7.6-1 .5-1.5.7c-.9.5-1.7.9-2.2 1.2-.5.3-.8.5-.8.5.7-1 1.5-1.9 2.4-2.7.4-.4.9-.7 1.4-1 .6-.4 1.1-.7 1.7-1 .7-.3 1.3-.5 2-.7s1.5-.3 2.2-.4h1.1l1.1.1c1.4.2 2.7.6 4 1.3.5.3 1 .6 1.5 1 .4.3.8.6 1.1 1l.8.8c.4.5.6.8.6.8s-.3-.2-.9-.4c-.3-.1-.6-.3-1-.5s-.8-.4-1.3-.6l-1.5-.6m36.4-.6c-.6-.1-1.2-.2-1.8-.2l-1-.1c-.3 0-.6 0-1 .1-.6 0-1.3.1-1.9.2-.6.2-1.2.3-1.8.5s-1.2.4-1.7.6-1 .5-1.5.7c-.9.5-1.7.9-2.2 1.2-.5.3-.8.5-.8.5.7-1 1.5-1.9 2.4-2.7.4-.4.9-.7 1.4-1 .6-.4 1.1-.7 1.7-1 .7-.3 1.3-.5 2-.7s1.5-.3 2.2-.4h1.1l1.1.1c1.4.2 2.7.6 4 1.3.5.3 1 .6 1.5 1 .4.3.8.6 1.1 1l.8.8c.4.5.6.8.6.8s-.3-.2-.9-.4c-.3-.1-.6-.3-1-.5s-.8-.4-1.3-.6l-1.5-.6" class="st11"/>
  <circle cx="40.5" cy="96.2" r="5" class="st11"/>
  <circle cx="39.3" cy="93.7" r="1.7" class="st12"/>
  <circle cx="75" cy="96.2" r="5" class="st11"/>
  <path d="M32 99.2c.2.1.4.3.5.4.2.1.4.3.7.4s.6.3 1 .4.8.3 1.2.4.9.2 1.3.3c.5 0 1 .1 1.4.1.5 0 1 0 1.5-.1.5 0 1-.1 1.5-.2s1-.2 1.4-.3c.5-.1.9-.2 1.3-.4l1.1-.4c.7-.2 1.3-.5 1.7-.7l.6-.3.1.2s-.2.2-.5.6l-.6.6c-.3.3-.6.5-.9.7-.3.2-.7.5-1.1.7-.4.2-.9.4-1.3.6-.5.2-1 .4-1.5.5s-1.1.2-1.6.3h-1.7c-.3 0-.6 0-.8-.1-.3 0-.5-.1-.8-.2-.5-.1-1-.3-1.5-.5-.4-.2-.8-.4-1.2-.7-.6-.4-1.1-.9-1.5-1.4-.1-.2-.2-.3-.3-.5 0-.1-.1-.1-.1-.2l.1-.2zm-.3-5.8c.6-.5 1.3-1 2.1-1.3.8-.4 1.5-.7 2.4-.9.5-.1.9-.2 1.4-.3.5-.1 1-.1 1.5-.2s1 0 1.5 0 1 .1 1.5.2.9.2 1.3.3c.4.1.8.3 1.1.5s.6.4.9.5c.2.2.4.3.6.5l.5.5-.1.1-.6-.3c-.2-.1-.4-.2-.7-.3l-.9-.3c-.3-.1-.7-.2-1.1-.3-.4-.1-.8-.1-1.3-.2-.9-.1-1.8-.1-2.8 0-1.7.1-3.5.5-5.1 1-.8.2-1.5.5-2.2.8v-.3zm36.5 5.8c.2.1.4.3.5.4.2.1.4.3.7.4.3.1.6.3 1 .4s.8.3 1.2.4c.4.1.9.2 1.3.3.5 0 1 .1 1.4.1.5 0 1 0 1.5-.1.5 0 1-.1 1.5-.2s1-.2 1.4-.3c.5-.1.9-.2 1.3-.4l1.1-.4c.7-.2 1.3-.5 1.7-.7l.6-.3.1.2s-.2.2-.5.6l-.6.6c-.3.3-.6.5-.9.7s-.7.5-1.1.7-.9.4-1.3.6c-.5.2-1 .4-1.5.5s-1.1.2-1.6.3h-1.7c-.3 0-.6 0-.8-.1-.3 0-.5-.1-.8-.2-.5-.1-1-.3-1.5-.5-.4-.2-.8-.4-1.2-.7-.6-.4-1.1-.9-1.5-1.4-.1-.2-.2-.3-.3-.5 0-.1-.1-.1-.1-.2l.1-.2zm-.2-5.8c.6-.5 1.3-1 2.1-1.3.8-.4 1.5-.7 2.4-.9.5-.1.9-.2 1.4-.3.5-.1 1-.1 1.5-.2s1 0 1.5 0 1 .1 1.5.2.9.2 1.3.3c.4.1.8.3 1.1.5.3.2.6.4.9.5.2.2.4.3.6.5l.5.5-.1.1-.6-.3c-.2-.1-.4-.2-.7-.3l-.9-.3c-.3-.1-.7-.2-1.1-.3-.4-.1-.8-.1-1.3-.2-.9-.1-1.8-.1-2.8 0-1.7.1-3.5.5-5.1 1-.8.2-1.5.5-2.2.8v-.3z" class="st2"/>
  <circle cx="73.8" cy="93.7" r="1.7" class="st12"/>
  <path d="M38.2 101.3H38c-.4 0-.9 0-1.5-.1-.5-.1-.9-.2-1.4-.3-.4-.1-.8-.2-1.2-.4-.3-.1-.6-.3-.9-.4h-.1l-.6-.3-.1-.1c-.2-.1-.4-.3-.6-.4l.3-.4c.2.1.3.3.5.4l.1.1c.2.1.3.2.6.3h.1c.3.1.5.2.9.4.4.1.7.3 1.1.3.4.1.9.2 1.3.3.5.1 1 .1 1.4.1.5 0 1 0 1.5-.1.5 0 1-.1 1.5-.2s.9-.2 1.4-.3c.2-.1.3-.1.5-.1.3-.1.5-.1.8-.2l1.1-.4c.5-.2.8-.3 1.2-.5.2-.1.4-.2.5-.2l.6-.3.2.4-.6.3c-.2.1-.3.1-.5.2-.3.2-.7.3-1.2.5l-1.1.4c-.3.1-.5.2-.8.2-.2 0-.3.1-.5.1l-1.5.3c-.5.1-1 .2-1.5.2-.4.2-.8.2-1.3.2zm36.3 0h-.2c-.4 0-.9 0-1.5-.1-.5-.1-.9-.2-1.4-.3-.4-.1-.8-.2-1.2-.4-.3-.1-.6-.3-.9-.4h-.1l-.6-.3-.1-.1c-.2-.1-.4-.3-.6-.4l.3-.4c.2.1.3.3.5.4l.1.1c.2.1.3.2.6.3h.1c.3.1.5.2.9.4.4.1.7.3 1.1.3.4.1.9.2 1.3.3.5.1 1 .1 1.4.1.5 0 1 0 1.5-.1.5 0 1-.1 1.5-.2s1-.2 1.4-.3c.2-.1.3-.1.5-.1.3-.1.5-.1.8-.2l1.1-.4c.5-.2.8-.3 1.2-.5.2-.1.4-.2.5-.2l.6-.3.2.4-.5.3c-.2.1-.3.1-.5.2-.3.1-.7.3-1.2.5l-1.1.4c-.3.1-.5.2-.8.2-.2 0-.3.1-.5.1l-1.5.3c-.5.1-1 .2-1.5.2-.5.2-1 .2-1.4.2z" class="st13"/>
  <path d="M22.2 138c0-.3.1-.7.1-1 0-2.3-.6-4.5-1.7-6.4 3.5-2.4 5.9-6.4 5.9-11 0-3.2-1.2-6.2-3.1-8.5.1-.6.1-1.1.1-1.7 0-1.6-.3-3.2-.8-4.6.5-1.4.8-3 .8-4.6 0-2.5-.7-4.9-1.9-6.9 4.1-2.3 6.8-6.6 6.8-11.6 0-5.7-3.6-10.6-8.7-12.4 4.5-2.1 7.7-6.7 7.7-12 0-4.8-2.5-9-6.3-11.3v-.8c0-1.4-.2-2.7-.6-4 1.2-2 1.8-4.3 1.8-6.7 0-7.3-5.9-13.2-13.2-13.2-3.5 0-6.7 1.4-9 3.6v128.8c.4.4.8.7 1.3 1.1 1.3.9 2.7 1.6 4.2 2 2.3 4.1 6.6 6.8 11.6 6.8 7.3 0 13.2-5.9 13.2-13.2-.1-5.7-3.4-10.4-8.2-12.4zM110 24.7c-2.4-2.2-5.5-3.6-9-3.6-3.7 0-7.1 1.6-9.5 4.1-1.2-.3-2.4-.5-3.7-.5-7.3 0-13.2 5.9-13.2 13.2 0 5.5 3.4 10.2 8.2 12.2-3.5 2.4-5.9 6.4-5.9 11 0 6.7 5 12.2 11.4 13.1-1.4 2.1-2.2 4.6-2.2 7.3 0 5 2.8 9.3 6.8 11.6-1.2 2-1.9 4.3-1.9 6.9 0 2.3.6 4.5 1.6 6.4-.3 1.1-.5 2.3-.5 3.4 0 .7.1 1.4.2 2.1-1.5 2.1-2.4 4.8-2.4 7.6 0 5.1 2.9 9.5 7.1 11.7-1.3.4-2.6 1-3.8 1.9-5.9 4.3-7.3 12.5-3 18.5 4.3 5.9 12.5 7.3 18.5 3 .5-.3.9-.7 1.3-1.1V24.7z" class="st0"/>
</svg>
